<svg width="964" height="145" viewBox="0 0 964 145" fill="none" xmlns="http://www.w3.org/2000/svg">
<rect x="121" y="26" width="50" height="50" rx="25" fill="#ECF2FF"/>
<rect x="143" y="48" width="6" height="6" rx="3" fill="#0066FF"/>
<rect width="83" height="1" transform="translate(175 50.5)" fill="#E6E9F2"/>
<path d="M89.4268 115V103.364H93.6882C94.514 103.364 95.1977 103.5 95.7393 103.773C96.281 104.042 96.6863 104.407 96.9553 104.869C97.2242 105.328 97.3587 105.845 97.3587 106.42C97.3587 106.905 97.2697 107.314 97.0916 107.648C96.9136 107.977 96.675 108.242 96.3757 108.443C96.0803 108.64 95.7545 108.784 95.3984 108.875V108.989C95.7848 109.008 96.1617 109.133 96.5291 109.364C96.9003 109.591 97.2071 109.915 97.4496 110.335C97.692 110.756 97.8132 111.267 97.8132 111.869C97.8132 112.464 97.6731 112.998 97.3928 113.472C97.1162 113.941 96.6882 114.314 96.1087 114.591C95.5291 114.864 94.7886 115 93.8871 115H89.4268ZM91.1825 113.494H93.7166C94.5575 113.494 95.1598 113.331 95.5234 113.006C95.8871 112.68 96.0689 112.273 96.0689 111.784C96.0689 111.417 95.9761 111.08 95.7905 110.773C95.6049 110.466 95.3397 110.222 94.995 110.04C94.6541 109.858 94.2488 109.767 93.7791 109.767H91.1825V113.494ZM91.1825 108.398H93.5348C93.9287 108.398 94.2829 108.322 94.5973 108.17C94.9155 108.019 95.1674 107.807 95.353 107.534C95.5424 107.258 95.6371 106.932 95.6371 106.557C95.6371 106.076 95.4685 105.672 95.1314 105.347C94.7943 105.021 94.2772 104.858 93.5803 104.858H91.1825V108.398ZM102.299 115.193C101.746 115.193 101.246 115.091 100.799 114.886C100.352 114.678 99.9979 114.377 99.7365 113.983C99.4789 113.589 99.3501 113.106 99.3501 112.534C99.3501 112.042 99.4448 111.636 99.6342 111.318C99.8236 111 100.079 110.748 100.401 110.562C100.723 110.377 101.083 110.237 101.481 110.142C101.879 110.047 102.284 109.975 102.697 109.926C103.219 109.866 103.644 109.816 103.969 109.778C104.295 109.737 104.532 109.67 104.68 109.58C104.827 109.489 104.901 109.341 104.901 109.136V109.097C104.901 108.6 104.761 108.216 104.481 107.943C104.204 107.67 103.791 107.534 103.242 107.534C102.67 107.534 102.219 107.661 101.89 107.915C101.564 108.165 101.339 108.443 101.214 108.75L99.6172 108.386C99.8066 107.856 100.083 107.428 100.447 107.102C100.814 106.773 101.237 106.534 101.714 106.386C102.191 106.235 102.693 106.159 103.219 106.159C103.568 106.159 103.937 106.201 104.327 106.284C104.721 106.364 105.089 106.511 105.43 106.727C105.774 106.943 106.057 107.252 106.276 107.653C106.496 108.051 106.606 108.568 106.606 109.205V115H104.947V113.807H104.879C104.769 114.027 104.604 114.242 104.384 114.455C104.165 114.667 103.882 114.843 103.538 114.983C103.193 115.123 102.78 115.193 102.299 115.193ZM102.668 113.83C103.138 113.83 103.54 113.737 103.873 113.551C104.21 113.366 104.466 113.123 104.64 112.824C104.818 112.521 104.907 112.197 104.907 111.852V110.727C104.846 110.788 104.729 110.845 104.555 110.898C104.384 110.947 104.189 110.991 103.969 111.028C103.75 111.062 103.536 111.095 103.327 111.125C103.119 111.152 102.945 111.174 102.805 111.193C102.475 111.235 102.174 111.305 101.901 111.403C101.632 111.502 101.416 111.644 101.254 111.83C101.094 112.011 101.015 112.254 101.015 112.557C101.015 112.977 101.17 113.295 101.481 113.511C101.791 113.723 102.187 113.83 102.668 113.83ZM115.408 108.403L113.869 108.676C113.804 108.479 113.702 108.292 113.562 108.114C113.425 107.936 113.24 107.79 113.005 107.676C112.77 107.562 112.477 107.506 112.124 107.506C111.643 107.506 111.242 107.614 110.92 107.83C110.598 108.042 110.437 108.316 110.437 108.653C110.437 108.945 110.545 109.18 110.761 109.358C110.977 109.536 111.325 109.682 111.806 109.795L113.192 110.114C113.996 110.299 114.594 110.585 114.988 110.972C115.382 111.358 115.579 111.86 115.579 112.477C115.579 113 115.427 113.466 115.124 113.875C114.825 114.28 114.406 114.598 113.869 114.83C113.335 115.061 112.715 115.176 112.011 115.176C111.033 115.176 110.236 114.968 109.619 114.551C109.001 114.131 108.622 113.534 108.482 112.761L110.124 112.511C110.227 112.939 110.437 113.263 110.755 113.483C111.073 113.699 111.488 113.807 111.999 113.807C112.556 113.807 113.001 113.691 113.335 113.46C113.668 113.225 113.835 112.939 113.835 112.602C113.835 112.33 113.732 112.1 113.528 111.915C113.327 111.729 113.018 111.589 112.602 111.494L111.124 111.17C110.31 110.985 109.708 110.689 109.317 110.284C108.931 109.879 108.738 109.366 108.738 108.744C108.738 108.229 108.882 107.778 109.17 107.392C109.458 107.006 109.855 106.705 110.363 106.489C110.871 106.269 111.452 106.159 112.107 106.159C113.05 106.159 113.793 106.364 114.335 106.773C114.876 107.178 115.234 107.722 115.408 108.403ZM117.447 115V106.273H119.146V115H117.447ZM118.305 104.926C118.009 104.926 117.755 104.828 117.543 104.631C117.335 104.43 117.231 104.191 117.231 103.915C117.231 103.634 117.335 103.396 117.543 103.199C117.755 102.998 118.009 102.898 118.305 102.898C118.6 102.898 118.852 102.998 119.06 103.199C119.272 103.396 119.379 103.634 119.379 103.915C119.379 104.191 119.272 104.43 119.06 104.631C118.852 104.828 118.6 104.926 118.305 104.926ZM125.107 115.176C124.263 115.176 123.535 114.985 122.925 114.602C122.319 114.216 121.853 113.684 121.528 113.006C121.202 112.328 121.039 111.551 121.039 110.676C121.039 109.79 121.206 109.008 121.539 108.33C121.872 107.648 122.342 107.116 122.948 106.733C123.554 106.35 124.268 106.159 125.09 106.159C125.753 106.159 126.344 106.282 126.863 106.528C127.382 106.771 127.8 107.112 128.119 107.551C128.441 107.991 128.632 108.504 128.692 109.091H127.039C126.948 108.682 126.74 108.33 126.414 108.034C126.092 107.739 125.66 107.591 125.119 107.591C124.645 107.591 124.23 107.716 123.874 107.966C123.522 108.212 123.247 108.564 123.05 109.023C122.853 109.477 122.755 110.015 122.755 110.636C122.755 111.273 122.852 111.822 123.045 112.284C123.238 112.746 123.511 113.104 123.863 113.358C124.219 113.612 124.638 113.739 125.119 113.739C125.441 113.739 125.732 113.68 125.994 113.562C126.259 113.441 126.48 113.269 126.658 113.045C126.84 112.822 126.967 112.553 127.039 112.239H128.692C128.632 112.803 128.448 113.307 128.141 113.75C127.835 114.193 127.424 114.542 126.908 114.795C126.397 115.049 125.797 115.176 125.107 115.176ZM138.505 115.176C137.645 115.176 136.905 114.992 136.283 114.625C135.666 114.254 135.189 113.733 134.852 113.062C134.518 112.388 134.352 111.598 134.352 110.693C134.352 109.799 134.518 109.011 134.852 108.33C135.189 107.648 135.658 107.116 136.261 106.733C136.867 106.35 137.575 106.159 138.386 106.159C138.878 106.159 139.355 106.241 139.817 106.403C140.28 106.566 140.694 106.822 141.062 107.17C141.429 107.519 141.719 107.972 141.931 108.528C142.143 109.081 142.249 109.754 142.249 110.545V111.148H135.312V109.875H140.585C140.585 109.428 140.494 109.032 140.312 108.688C140.13 108.339 139.874 108.064 139.545 107.864C139.219 107.663 138.836 107.562 138.397 107.562C137.92 107.562 137.503 107.68 137.147 107.915C136.795 108.146 136.522 108.449 136.329 108.824C136.139 109.195 136.045 109.598 136.045 110.034V111.028C136.045 111.612 136.147 112.108 136.352 112.517C136.56 112.926 136.85 113.239 137.221 113.455C137.592 113.667 138.026 113.773 138.522 113.773C138.844 113.773 139.138 113.727 139.403 113.636C139.668 113.542 139.897 113.402 140.09 113.216C140.283 113.03 140.431 112.801 140.533 112.528L142.141 112.818C142.013 113.292 141.781 113.706 141.448 114.062C141.119 114.415 140.704 114.689 140.204 114.886C139.708 115.08 139.141 115.176 138.505 115.176ZM145.833 103.364V115H144.134V103.364H145.833ZM151.88 115.176C151.02 115.176 150.28 114.992 149.658 114.625C149.041 114.254 148.564 113.733 148.227 113.062C147.893 112.388 147.727 111.598 147.727 110.693C147.727 109.799 147.893 109.011 148.227 108.33C148.564 107.648 149.033 107.116 149.636 106.733C150.242 106.35 150.95 106.159 151.761 106.159C152.253 106.159 152.73 106.241 153.192 106.403C153.655 106.566 154.069 106.822 154.437 107.17C154.804 107.519 155.094 107.972 155.306 108.528C155.518 109.081 155.624 109.754 155.624 110.545V111.148H148.687V109.875H153.96C153.96 109.428 153.869 109.032 153.687 108.688C153.505 108.339 153.249 108.064 152.92 107.864C152.594 107.663 152.211 107.562 151.772 107.562C151.295 107.562 150.878 107.68 150.522 107.915C150.17 108.146 149.897 108.449 149.704 108.824C149.514 109.195 149.42 109.598 149.42 110.034V111.028C149.42 111.612 149.522 112.108 149.727 112.517C149.935 112.926 150.225 113.239 150.596 113.455C150.967 113.667 151.401 113.773 151.897 113.773C152.219 113.773 152.513 113.727 152.778 113.636C153.043 113.542 153.272 113.402 153.465 113.216C153.658 113.03 153.806 112.801 153.908 112.528L155.516 112.818C155.388 113.292 155.156 113.706 154.823 114.062C154.494 114.415 154.079 114.689 153.579 114.886C153.083 115.08 152.516 115.176 151.88 115.176ZM157.509 115V106.273H159.14V107.693H159.248C159.43 107.212 159.727 106.837 160.14 106.568C160.553 106.295 161.047 106.159 161.623 106.159C162.206 106.159 162.695 106.295 163.089 106.568C163.487 106.841 163.78 107.216 163.969 107.693H164.06C164.269 107.227 164.6 106.856 165.055 106.58C165.509 106.299 166.051 106.159 166.68 106.159C167.471 106.159 168.117 106.407 168.617 106.903C169.121 107.4 169.373 108.148 169.373 109.148V115H167.674V109.307C167.674 108.716 167.513 108.288 167.191 108.023C166.869 107.758 166.485 107.625 166.038 107.625C165.485 107.625 165.055 107.795 164.748 108.136C164.441 108.473 164.288 108.907 164.288 109.438V115H162.594V109.199C162.594 108.725 162.447 108.345 162.151 108.057C161.856 107.769 161.471 107.625 160.998 107.625C160.676 107.625 160.379 107.71 160.106 107.881C159.837 108.047 159.619 108.28 159.452 108.58C159.29 108.879 159.208 109.225 159.208 109.619V115H157.509ZM175.411 115.176C174.551 115.176 173.811 114.992 173.19 114.625C172.572 114.254 172.095 113.733 171.758 113.062C171.424 112.388 171.258 111.598 171.258 110.693C171.258 109.799 171.424 109.011 171.758 108.33C172.095 107.648 172.565 107.116 173.167 106.733C173.773 106.35 174.481 106.159 175.292 106.159C175.784 106.159 176.262 106.241 176.724 106.403C177.186 106.566 177.601 106.822 177.968 107.17C178.335 107.519 178.625 107.972 178.837 108.528C179.049 109.081 179.156 109.754 179.156 110.545V111.148H172.218V109.875H177.491C177.491 109.428 177.4 109.032 177.218 108.688C177.036 108.339 176.781 108.064 176.451 107.864C176.125 107.663 175.743 107.562 175.303 107.562C174.826 107.562 174.409 107.68 174.053 107.915C173.701 108.146 173.428 108.449 173.235 108.824C173.046 109.195 172.951 109.598 172.951 110.034V111.028C172.951 111.612 173.053 112.108 173.258 112.517C173.466 112.926 173.756 113.239 174.127 113.455C174.498 113.667 174.932 113.773 175.428 113.773C175.75 113.773 176.044 113.727 176.309 113.636C176.574 113.542 176.803 113.402 176.996 113.216C177.19 113.03 177.337 112.801 177.44 112.528L179.048 112.818C178.919 113.292 178.688 113.706 178.354 114.062C178.025 114.415 177.61 114.689 177.11 114.886C176.614 115.08 176.048 115.176 175.411 115.176ZM182.739 109.818V115H181.04V106.273H182.671V107.693H182.779C182.98 107.231 183.294 106.86 183.722 106.58C184.154 106.299 184.698 106.159 185.353 106.159C185.948 106.159 186.469 106.284 186.915 106.534C187.362 106.78 187.709 107.148 187.955 107.636C188.201 108.125 188.325 108.729 188.325 109.449V115H186.626V109.653C186.626 109.021 186.461 108.527 186.131 108.17C185.802 107.811 185.349 107.631 184.773 107.631C184.379 107.631 184.029 107.716 183.722 107.886C183.419 108.057 183.179 108.307 183.001 108.636C182.826 108.962 182.739 109.356 182.739 109.818ZM194.677 106.273V107.636H189.91V106.273H194.677ZM191.188 104.182H192.887V112.438C192.887 112.767 192.936 113.015 193.035 113.182C193.133 113.345 193.26 113.456 193.415 113.517C193.575 113.574 193.747 113.602 193.933 113.602C194.069 113.602 194.188 113.593 194.29 113.574C194.393 113.555 194.472 113.54 194.529 113.528L194.836 114.932C194.737 114.97 194.597 115.008 194.415 115.045C194.234 115.087 194.006 115.11 193.734 115.114C193.287 115.121 192.87 115.042 192.484 114.875C192.097 114.708 191.785 114.451 191.546 114.102C191.308 113.754 191.188 113.316 191.188 112.79V104.182ZM202.955 108.403L201.415 108.676C201.351 108.479 201.249 108.292 201.109 108.114C200.972 107.936 200.787 107.79 200.552 107.676C200.317 107.562 200.023 107.506 199.671 107.506C199.19 107.506 198.789 107.614 198.467 107.83C198.145 108.042 197.984 108.316 197.984 108.653C197.984 108.945 198.092 109.18 198.308 109.358C198.523 109.536 198.872 109.682 199.353 109.795L200.739 110.114C201.542 110.299 202.141 110.585 202.535 110.972C202.929 111.358 203.126 111.86 203.126 112.477C203.126 113 202.974 113.466 202.671 113.875C202.372 114.28 201.953 114.598 201.415 114.83C200.881 115.061 200.262 115.176 199.558 115.176C198.58 115.176 197.783 114.968 197.165 114.551C196.548 114.131 196.169 113.534 196.029 112.761L197.671 112.511C197.773 112.939 197.984 113.263 198.302 113.483C198.62 113.699 199.035 113.807 199.546 113.807C200.103 113.807 200.548 113.691 200.881 113.46C201.215 113.225 201.381 112.939 201.381 112.602C201.381 112.33 201.279 112.1 201.075 111.915C200.874 111.729 200.565 111.589 200.148 111.494L198.671 111.17C197.857 110.985 197.254 110.689 196.864 110.284C196.478 109.879 196.285 109.366 196.285 108.744C196.285 108.229 196.429 107.778 196.717 107.392C197.004 107.006 197.402 106.705 197.91 106.489C198.417 106.269 198.999 106.159 199.654 106.159C200.597 106.159 201.34 106.364 201.881 106.773C202.423 107.178 202.781 107.722 202.955 108.403Z" fill="black"/>
<rect width="83" height="1" transform="translate(258 50.5)" fill="#E6E9F2"/>
<rect x="345" y="26" width="50" height="50" rx="25" fill="#ECF2FF"/>
<rect x="367" y="48" width="6" height="6" rx="3" fill="#0066FF"/>
<rect width="83" height="1" transform="translate(399 50.5)" fill="#E6E9F2"/>
<path d="M331.959 107.148H330.186C330.118 106.769 329.991 106.436 329.805 106.148C329.62 105.86 329.393 105.616 329.124 105.415C328.855 105.214 328.554 105.062 328.22 104.96C327.891 104.858 327.54 104.807 327.169 104.807C326.499 104.807 325.898 104.975 325.368 105.312C324.841 105.65 324.425 106.144 324.118 106.795C323.815 107.447 323.663 108.242 323.663 109.182C323.663 110.129 323.815 110.928 324.118 111.58C324.425 112.231 324.843 112.723 325.374 113.057C325.904 113.39 326.5 113.557 327.163 113.557C327.531 113.557 327.879 113.508 328.209 113.409C328.542 113.307 328.843 113.157 329.112 112.96C329.381 112.763 329.608 112.523 329.794 112.239C329.983 111.951 330.114 111.621 330.186 111.25L331.959 111.256C331.864 111.828 331.68 112.354 331.408 112.835C331.139 113.312 330.792 113.725 330.368 114.074C329.947 114.419 329.466 114.686 328.925 114.875C328.383 115.064 327.792 115.159 327.152 115.159C326.144 115.159 325.247 114.92 324.459 114.443C323.671 113.962 323.05 113.275 322.595 112.381C322.144 111.487 321.919 110.42 321.919 109.182C321.919 107.939 322.146 106.873 322.601 105.983C323.055 105.089 323.677 104.403 324.464 103.926C325.252 103.445 326.148 103.205 327.152 103.205C327.769 103.205 328.345 103.294 328.879 103.472C329.417 103.646 329.9 103.903 330.328 104.244C330.756 104.581 331.11 104.994 331.391 105.483C331.671 105.968 331.86 106.523 331.959 107.148ZM337.599 115.176C336.781 115.176 336.067 114.989 335.457 114.614C334.848 114.239 334.374 113.714 334.037 113.04C333.7 112.366 333.531 111.578 333.531 110.676C333.531 109.771 333.7 108.979 334.037 108.301C334.374 107.623 334.848 107.097 335.457 106.722C336.067 106.347 336.781 106.159 337.599 106.159C338.418 106.159 339.132 106.347 339.741 106.722C340.351 107.097 340.825 107.623 341.162 108.301C341.499 108.979 341.668 109.771 341.668 110.676C341.668 111.578 341.499 112.366 341.162 113.04C340.825 113.714 340.351 114.239 339.741 114.614C339.132 114.989 338.418 115.176 337.599 115.176ZM337.605 113.75C338.135 113.75 338.575 113.61 338.923 113.33C339.272 113.049 339.529 112.676 339.696 112.21C339.866 111.744 339.952 111.231 339.952 110.67C339.952 110.114 339.866 109.602 339.696 109.136C339.529 108.667 339.272 108.29 338.923 108.006C338.575 107.722 338.135 107.58 337.605 107.58C337.071 107.58 336.628 107.722 336.276 108.006C335.927 108.29 335.668 108.667 335.497 109.136C335.33 109.602 335.247 110.114 335.247 110.67C335.247 111.231 335.33 111.744 335.497 112.21C335.668 112.676 335.927 113.049 336.276 113.33C336.628 113.61 337.071 113.75 337.605 113.75ZM343.564 115V106.273H345.195V107.693H345.303C345.484 107.212 345.782 106.837 346.195 106.568C346.607 106.295 347.102 106.159 347.678 106.159C348.261 106.159 348.75 106.295 349.143 106.568C349.541 106.841 349.835 107.216 350.024 107.693H350.115C350.323 107.227 350.655 106.856 351.109 106.58C351.564 106.299 352.106 106.159 352.734 106.159C353.526 106.159 354.172 106.407 354.672 106.903C355.176 107.4 355.428 108.148 355.428 109.148V115H353.729V109.307C353.729 108.716 353.568 108.288 353.246 108.023C352.924 107.758 352.539 107.625 352.092 107.625C351.539 107.625 351.109 107.795 350.803 108.136C350.496 108.473 350.342 108.907 350.342 109.438V115H348.649V109.199C348.649 108.725 348.501 108.345 348.206 108.057C347.911 107.769 347.526 107.625 347.053 107.625C346.731 107.625 346.433 107.71 346.161 107.881C345.892 108.047 345.674 108.28 345.507 108.58C345.344 108.879 345.263 109.225 345.263 109.619V115H343.564ZM357.705 118.273V106.273H359.364V107.688H359.506C359.604 107.506 359.746 107.295 359.932 107.057C360.117 106.818 360.375 106.61 360.705 106.432C361.034 106.25 361.47 106.159 362.011 106.159C362.716 106.159 363.345 106.337 363.898 106.693C364.451 107.049 364.884 107.562 365.199 108.233C365.517 108.903 365.676 109.71 365.676 110.653C365.676 111.597 365.519 112.405 365.205 113.08C364.89 113.75 364.458 114.267 363.909 114.631C363.36 114.991 362.733 115.17 362.028 115.17C361.498 115.17 361.064 115.081 360.727 114.903C360.394 114.725 360.133 114.517 359.943 114.278C359.754 114.04 359.608 113.828 359.506 113.642H359.403V118.273H357.705ZM359.369 110.636C359.369 111.25 359.458 111.788 359.636 112.25C359.814 112.712 360.072 113.074 360.409 113.335C360.746 113.593 361.159 113.722 361.648 113.722C362.155 113.722 362.58 113.587 362.92 113.318C363.261 113.045 363.519 112.676 363.693 112.21C363.871 111.744 363.96 111.22 363.96 110.636C363.96 110.061 363.873 109.544 363.699 109.085C363.528 108.627 363.271 108.265 362.926 108C362.585 107.735 362.159 107.602 361.648 107.602C361.155 107.602 360.739 107.729 360.398 107.983C360.061 108.237 359.805 108.591 359.631 109.045C359.456 109.5 359.369 110.03 359.369 110.636ZM371.256 115.176C370.438 115.176 369.723 114.989 369.114 114.614C368.504 114.239 368.03 113.714 367.693 113.04C367.356 112.366 367.188 111.578 367.188 110.676C367.188 109.771 367.356 108.979 367.693 108.301C368.03 107.623 368.504 107.097 369.114 106.722C369.723 106.347 370.438 106.159 371.256 106.159C372.074 106.159 372.788 106.347 373.398 106.722C374.008 107.097 374.481 107.623 374.818 108.301C375.155 108.979 375.324 109.771 375.324 110.676C375.324 111.578 375.155 112.366 374.818 113.04C374.481 113.714 374.008 114.239 373.398 114.614C372.788 114.989 372.074 115.176 371.256 115.176ZM371.261 113.75C371.792 113.75 372.231 113.61 372.58 113.33C372.928 113.049 373.186 112.676 373.352 112.21C373.523 111.744 373.608 111.231 373.608 110.67C373.608 110.114 373.523 109.602 373.352 109.136C373.186 108.667 372.928 108.29 372.58 108.006C372.231 107.722 371.792 107.58 371.261 107.58C370.727 107.58 370.284 107.722 369.932 108.006C369.583 108.29 369.324 108.667 369.153 109.136C368.987 109.602 368.903 110.114 368.903 110.67C368.903 111.231 368.987 111.744 369.153 112.21C369.324 112.676 369.583 113.049 369.932 113.33C370.284 113.61 370.727 113.75 371.261 113.75ZM378.919 109.818V115H377.22V106.273H378.851V107.693H378.959C379.16 107.231 379.474 106.86 379.902 106.58C380.334 106.299 380.877 106.159 381.533 106.159C382.127 106.159 382.648 106.284 383.095 106.534C383.542 106.78 383.889 107.148 384.135 107.636C384.381 108.125 384.504 108.729 384.504 109.449V115H382.805V109.653C382.805 109.021 382.641 108.527 382.311 108.17C381.982 107.811 381.529 107.631 380.953 107.631C380.559 107.631 380.209 107.716 379.902 107.886C379.599 108.057 379.358 108.307 379.18 108.636C379.006 108.962 378.919 109.356 378.919 109.818ZM390.544 115.176C389.684 115.176 388.944 114.992 388.322 114.625C387.705 114.254 387.228 113.733 386.891 113.062C386.557 112.388 386.391 111.598 386.391 110.693C386.391 109.799 386.557 109.011 386.891 108.33C387.228 107.648 387.697 107.116 388.3 106.733C388.906 106.35 389.614 106.159 390.425 106.159C390.917 106.159 391.394 106.241 391.857 106.403C392.319 106.566 392.733 106.822 393.101 107.17C393.468 107.519 393.758 107.972 393.97 108.528C394.182 109.081 394.288 109.754 394.288 110.545V111.148H387.351V109.875H392.624C392.624 109.428 392.533 109.032 392.351 108.688C392.169 108.339 391.913 108.064 391.584 107.864C391.258 107.663 390.875 107.562 390.436 107.562C389.959 107.562 389.542 107.68 389.186 107.915C388.834 108.146 388.561 108.449 388.368 108.824C388.179 109.195 388.084 109.598 388.084 110.034V111.028C388.084 111.612 388.186 112.108 388.391 112.517C388.599 112.926 388.889 113.239 389.26 113.455C389.631 113.667 390.065 113.773 390.561 113.773C390.883 113.773 391.177 113.727 391.442 113.636C391.707 113.542 391.936 113.402 392.129 113.216C392.322 113.03 392.47 112.801 392.572 112.528L394.18 112.818C394.052 113.292 393.821 113.706 393.487 114.062C393.158 114.415 392.743 114.689 392.243 114.886C391.747 115.08 391.18 115.176 390.544 115.176ZM397.872 109.818V115H396.173V106.273H397.804V107.693H397.912C398.113 107.231 398.427 106.86 398.855 106.58C399.287 106.299 399.83 106.159 400.486 106.159C401.08 106.159 401.601 106.284 402.048 106.534C402.495 106.78 402.842 107.148 403.088 107.636C403.334 108.125 403.457 108.729 403.457 109.449V115H401.759V109.653C401.759 109.021 401.594 108.527 401.264 108.17C400.935 107.811 400.482 107.631 399.906 107.631C399.512 107.631 399.162 107.716 398.855 107.886C398.552 108.057 398.312 108.307 398.134 108.636C397.959 108.962 397.872 109.356 397.872 109.818ZM409.81 106.273V107.636H405.043V106.273H409.81ZM406.321 104.182H408.02V112.438C408.02 112.767 408.069 113.015 408.168 113.182C408.266 113.345 408.393 113.456 408.548 113.517C408.707 113.574 408.88 113.602 409.065 113.602C409.202 113.602 409.321 113.593 409.423 113.574C409.526 113.555 409.605 113.54 409.662 113.528L409.969 114.932C409.87 114.97 409.73 115.008 409.548 115.045C409.366 115.087 409.139 115.11 408.866 115.114C408.42 115.121 408.003 115.042 407.616 114.875C407.23 114.708 406.918 114.451 406.679 114.102C406.44 113.754 406.321 113.316 406.321 112.79V104.182ZM418.088 108.403L416.548 108.676C416.484 108.479 416.382 108.292 416.241 108.114C416.105 107.936 415.92 107.79 415.685 107.676C415.45 107.562 415.156 107.506 414.804 107.506C414.323 107.506 413.921 107.614 413.599 107.83C413.277 108.042 413.116 108.316 413.116 108.653C413.116 108.945 413.224 109.18 413.44 109.358C413.656 109.536 414.005 109.682 414.486 109.795L415.872 110.114C416.675 110.299 417.274 110.585 417.668 110.972C418.062 111.358 418.259 111.86 418.259 112.477C418.259 113 418.107 113.466 417.804 113.875C417.505 114.28 417.086 114.598 416.548 114.83C416.014 115.061 415.395 115.176 414.69 115.176C413.713 115.176 412.916 114.968 412.298 114.551C411.681 114.131 411.302 113.534 411.162 112.761L412.804 112.511C412.906 112.939 413.116 113.263 413.435 113.483C413.753 113.699 414.168 113.807 414.679 113.807C415.236 113.807 415.681 113.691 416.014 113.46C416.348 113.225 416.514 112.939 416.514 112.602C416.514 112.33 416.412 112.1 416.207 111.915C416.007 111.729 415.698 111.589 415.281 111.494L413.804 111.17C412.99 110.985 412.387 110.689 411.997 110.284C411.611 109.879 411.418 109.366 411.418 108.744C411.418 108.229 411.562 107.778 411.849 107.392C412.137 107.006 412.535 106.705 413.043 106.489C413.55 106.269 414.132 106.159 414.787 106.159C415.73 106.159 416.473 106.364 417.014 106.773C417.556 107.178 417.914 107.722 418.088 108.403Z" fill="black"/>
<rect width="83" height="1" transform="translate(482 50.5)" fill="#E6E9F2"/>
<rect x="569" y="26" width="50" height="50" rx="25" fill="#ECF2FF"/>
<rect x="591" y="48" width="6" height="6" rx="3" fill="#0066FF"/>
<rect width="83" height="1" transform="translate(623 50.5)" fill="#E6E9F2"/>
<path d="M515.928 107.148H514.155C514.087 106.769 513.96 106.436 513.774 106.148C513.589 105.86 513.361 105.616 513.092 105.415C512.823 105.214 512.522 105.062 512.189 104.96C511.859 104.858 511.509 104.807 511.138 104.807C510.467 104.807 509.867 104.975 509.337 105.312C508.81 105.65 508.393 106.144 508.087 106.795C507.784 107.447 507.632 108.242 507.632 109.182C507.632 110.129 507.784 110.928 508.087 111.58C508.393 112.231 508.812 112.723 509.342 113.057C509.873 113.39 510.469 113.557 511.132 113.557C511.5 113.557 511.848 113.508 512.178 113.409C512.511 113.307 512.812 113.157 513.081 112.96C513.35 112.763 513.577 112.523 513.763 112.239C513.952 111.951 514.083 111.621 514.155 111.25L515.928 111.256C515.833 111.828 515.649 112.354 515.376 112.835C515.107 113.312 514.761 113.725 514.337 114.074C513.916 114.419 513.435 114.686 512.893 114.875C512.352 115.064 511.761 115.159 511.121 115.159C510.113 115.159 509.215 114.92 508.428 114.443C507.64 113.962 507.018 113.275 506.564 112.381C506.113 111.487 505.888 110.42 505.888 109.182C505.888 107.939 506.115 106.873 506.57 105.983C507.024 105.089 507.645 104.403 508.433 103.926C509.221 103.445 510.117 103.205 511.121 103.205C511.738 103.205 512.314 103.294 512.848 103.472C513.386 103.646 513.869 103.903 514.297 104.244C514.725 104.581 515.079 104.994 515.359 105.483C515.64 105.968 515.829 106.523 515.928 107.148ZM521.568 115.176C520.75 115.176 520.036 114.989 519.426 114.614C518.816 114.239 518.343 113.714 518.006 113.04C517.669 112.366 517.5 111.578 517.5 110.676C517.5 109.771 517.669 108.979 518.006 108.301C518.343 107.623 518.816 107.097 519.426 106.722C520.036 106.347 520.75 106.159 521.568 106.159C522.386 106.159 523.1 106.347 523.71 106.722C524.32 107.097 524.794 107.623 525.131 108.301C525.468 108.979 525.636 109.771 525.636 110.676C525.636 111.578 525.468 112.366 525.131 113.04C524.794 113.714 524.32 114.239 523.71 114.614C523.1 114.989 522.386 115.176 521.568 115.176ZM521.574 113.75C522.104 113.75 522.544 113.61 522.892 113.33C523.241 113.049 523.498 112.676 523.665 112.21C523.835 111.744 523.92 111.231 523.92 110.67C523.92 110.114 523.835 109.602 523.665 109.136C523.498 108.667 523.241 108.29 522.892 108.006C522.544 107.722 522.104 107.58 521.574 107.58C521.04 107.58 520.597 107.722 520.244 108.006C519.896 108.29 519.636 108.667 519.466 109.136C519.299 109.602 519.216 110.114 519.216 110.67C519.216 111.231 519.299 111.744 519.466 112.21C519.636 112.676 519.896 113.049 520.244 113.33C520.597 113.61 521.04 113.75 521.574 113.75ZM527.533 115V106.273H529.163V107.693H529.271C529.453 107.212 529.75 106.837 530.163 106.568C530.576 106.295 531.071 106.159 531.646 106.159C532.23 106.159 532.718 106.295 533.112 106.568C533.51 106.841 533.804 107.216 533.993 107.693H534.084C534.292 107.227 534.624 106.856 535.078 106.58C535.533 106.299 536.074 106.159 536.703 106.159C537.495 106.159 538.141 106.407 538.641 106.903C539.144 107.4 539.396 108.148 539.396 109.148V115H537.697V109.307C537.697 108.716 537.536 108.288 537.214 108.023C536.893 107.758 536.508 107.625 536.061 107.625C535.508 107.625 535.078 107.795 534.771 108.136C534.464 108.473 534.311 108.907 534.311 109.438V115H532.618V109.199C532.618 108.725 532.47 108.345 532.175 108.057C531.879 107.769 531.495 107.625 531.021 107.625C530.699 107.625 530.402 107.71 530.129 107.881C529.86 108.047 529.643 108.28 529.476 108.58C529.313 108.879 529.232 109.225 529.232 109.619V115H527.533ZM541.81 115V103.364H543.509V107.688H543.611C543.709 107.506 543.851 107.295 544.037 107.057C544.223 106.818 544.48 106.61 544.81 106.432C545.139 106.25 545.575 106.159 546.116 106.159C546.821 106.159 547.45 106.337 548.003 106.693C548.556 107.049 548.99 107.562 549.304 108.233C549.622 108.903 549.781 109.71 549.781 110.653C549.781 111.597 549.624 112.405 549.31 113.08C548.995 113.75 548.563 114.267 548.014 114.631C547.465 114.991 546.838 115.17 546.134 115.17C545.603 115.17 545.17 115.081 544.832 114.903C544.499 114.725 544.238 114.517 544.048 114.278C543.859 114.04 543.713 113.828 543.611 113.642H543.469V115H541.81ZM543.474 110.636C543.474 111.25 543.563 111.788 543.741 112.25C543.92 112.712 544.177 113.074 544.514 113.335C544.851 113.593 545.264 113.722 545.753 113.722C546.26 113.722 546.685 113.587 547.026 113.318C547.366 113.045 547.624 112.676 547.798 112.21C547.976 111.744 548.065 111.22 548.065 110.636C548.065 110.061 547.978 109.544 547.804 109.085C547.634 108.627 547.376 108.265 547.031 108C546.69 107.735 546.264 107.602 545.753 107.602C545.26 107.602 544.844 107.729 544.503 107.983C544.166 108.237 543.91 108.591 543.736 109.045C543.562 109.5 543.474 110.03 543.474 110.636ZM551.689 115V106.273H553.388V115H551.689ZM552.547 104.926C552.251 104.926 551.998 104.828 551.786 104.631C551.577 104.43 551.473 104.191 551.473 103.915C551.473 103.634 551.577 103.396 551.786 103.199C551.998 102.998 552.251 102.898 552.547 102.898C552.842 102.898 553.094 102.998 553.303 103.199C553.515 103.396 553.621 103.634 553.621 103.915C553.621 104.191 553.515 104.43 553.303 104.631C553.094 104.828 552.842 104.926 552.547 104.926ZM557.372 109.818V115H555.673V106.273H557.304V107.693H557.412C557.613 107.231 557.927 106.86 558.355 106.58C558.787 106.299 559.33 106.159 559.986 106.159C560.58 106.159 561.101 106.284 561.548 106.534C561.995 106.78 562.342 107.148 562.588 107.636C562.834 108.125 562.957 108.729 562.957 109.449V115H561.259V109.653C561.259 109.021 561.094 108.527 560.764 108.17C560.435 107.811 559.982 107.631 559.406 107.631C559.012 107.631 558.662 107.716 558.355 107.886C558.052 108.057 557.812 108.307 557.634 108.636C557.459 108.962 557.372 109.356 557.372 109.818ZM568.997 115.176C568.137 115.176 567.397 114.992 566.776 114.625C566.158 114.254 565.681 113.733 565.344 113.062C565.01 112.388 564.844 111.598 564.844 110.693C564.844 109.799 565.01 109.011 565.344 108.33C565.681 107.648 566.151 107.116 566.753 106.733C567.359 106.35 568.067 106.159 568.878 106.159C569.37 106.159 569.848 106.241 570.31 106.403C570.772 106.566 571.187 106.822 571.554 107.17C571.921 107.519 572.211 107.972 572.423 108.528C572.635 109.081 572.741 109.754 572.741 110.545V111.148H565.804V109.875H571.077C571.077 109.428 570.986 109.032 570.804 108.688C570.622 108.339 570.366 108.064 570.037 107.864C569.711 107.663 569.329 107.562 568.889 107.562C568.412 107.562 567.995 107.68 567.639 107.915C567.287 108.146 567.014 108.449 566.821 108.824C566.632 109.195 566.537 109.598 566.537 110.034V111.028C566.537 111.612 566.639 112.108 566.844 112.517C567.052 112.926 567.342 113.239 567.713 113.455C568.084 113.667 568.518 113.773 569.014 113.773C569.336 113.773 569.63 113.727 569.895 113.636C570.16 113.542 570.389 113.402 570.582 113.216C570.776 113.03 570.923 112.801 571.026 112.528L572.634 112.818C572.505 113.292 572.274 113.706 571.94 114.062C571.611 114.415 571.196 114.689 570.696 114.886C570.2 115.08 569.634 115.176 568.997 115.176ZM577.893 115.17C577.189 115.17 576.56 114.991 576.007 114.631C575.458 114.267 575.026 113.75 574.712 113.08C574.401 112.405 574.246 111.597 574.246 110.653C574.246 109.71 574.403 108.903 574.717 108.233C575.036 107.562 575.471 107.049 576.024 106.693C576.577 106.337 577.204 106.159 577.905 106.159C578.446 106.159 578.882 106.25 579.212 106.432C579.545 106.61 579.803 106.818 579.984 107.057C580.17 107.295 580.314 107.506 580.416 107.688H580.518V103.364H582.217V115H580.558V113.642H580.416C580.314 113.828 580.166 114.04 579.973 114.278C579.784 114.517 579.522 114.725 579.189 114.903C578.856 115.081 578.424 115.17 577.893 115.17ZM578.268 113.722C578.757 113.722 579.17 113.593 579.507 113.335C579.848 113.074 580.106 112.712 580.28 112.25C580.458 111.788 580.547 111.25 580.547 110.636C580.547 110.03 580.46 109.5 580.286 109.045C580.111 108.591 579.856 108.237 579.518 107.983C579.181 107.729 578.765 107.602 578.268 107.602C577.757 107.602 577.331 107.735 576.99 108C576.649 108.265 576.392 108.627 576.217 109.085C576.047 109.544 575.962 110.061 575.962 110.636C575.962 111.22 576.049 111.744 576.223 112.21C576.397 112.676 576.655 113.045 576.996 113.318C577.34 113.587 577.765 113.722 578.268 113.722ZM592.553 115.176C591.708 115.176 590.981 114.985 590.371 114.602C589.765 114.216 589.299 113.684 588.973 113.006C588.647 112.328 588.484 111.551 588.484 110.676C588.484 109.79 588.651 109.008 588.984 108.33C589.318 107.648 589.787 107.116 590.393 106.733C591 106.35 591.714 106.159 592.536 106.159C593.198 106.159 593.789 106.282 594.308 106.528C594.827 106.771 595.246 107.112 595.564 107.551C595.886 107.991 596.077 108.504 596.138 109.091H594.484C594.393 108.682 594.185 108.33 593.859 108.034C593.537 107.739 593.106 107.591 592.564 107.591C592.09 107.591 591.676 107.716 591.32 107.966C590.967 108.212 590.693 108.564 590.496 109.023C590.299 109.477 590.2 110.015 590.2 110.636C590.2 111.273 590.297 111.822 590.49 112.284C590.683 112.746 590.956 113.104 591.308 113.358C591.664 113.612 592.083 113.739 592.564 113.739C592.886 113.739 593.178 113.68 593.439 113.562C593.704 113.441 593.926 113.269 594.104 113.045C594.286 112.822 594.412 112.553 594.484 112.239H596.138C596.077 112.803 595.893 113.307 595.587 113.75C595.28 114.193 594.869 114.542 594.354 114.795C593.842 115.049 593.242 115.176 592.553 115.176ZM601.631 115.176C600.813 115.176 600.098 114.989 599.489 114.614C598.879 114.239 598.405 113.714 598.068 113.04C597.731 112.366 597.562 111.578 597.562 110.676C597.562 109.771 597.731 108.979 598.068 108.301C598.405 107.623 598.879 107.097 599.489 106.722C600.098 106.347 600.813 106.159 601.631 106.159C602.449 106.159 603.163 106.347 603.773 106.722C604.383 107.097 604.856 107.623 605.193 108.301C605.53 108.979 605.699 109.771 605.699 110.676C605.699 111.578 605.53 112.366 605.193 113.04C604.856 113.714 604.383 114.239 603.773 114.614C603.163 114.989 602.449 115.176 601.631 115.176ZM601.636 113.75C602.167 113.75 602.606 113.61 602.955 113.33C603.303 113.049 603.561 112.676 603.727 112.21C603.898 111.744 603.983 111.231 603.983 110.67C603.983 110.114 603.898 109.602 603.727 109.136C603.561 108.667 603.303 108.29 602.955 108.006C602.606 107.722 602.167 107.58 601.636 107.58C601.102 107.58 600.659 107.722 600.307 108.006C599.958 108.29 599.699 108.667 599.528 109.136C599.362 109.602 599.278 110.114 599.278 110.67C599.278 111.231 599.362 111.744 599.528 112.21C599.699 112.676 599.958 113.049 600.307 113.33C600.659 113.61 601.102 113.75 601.636 113.75ZM607.595 115V106.273H609.226V107.693H609.334C609.516 107.212 609.813 106.837 610.226 106.568C610.639 106.295 611.133 106.159 611.709 106.159C612.292 106.159 612.781 106.295 613.175 106.568C613.572 106.841 613.866 107.216 614.055 107.693H614.146C614.355 107.227 614.686 106.856 615.141 106.58C615.595 106.299 616.137 106.159 616.766 106.159C617.557 106.159 618.203 106.407 618.703 106.903C619.207 107.4 619.459 108.148 619.459 109.148V115H617.76V109.307C617.76 108.716 617.599 108.288 617.277 108.023C616.955 107.758 616.571 107.625 616.124 107.625C615.571 107.625 615.141 107.795 614.834 108.136C614.527 108.473 614.374 108.907 614.374 109.438V115H612.68V109.199C612.68 108.725 612.533 108.345 612.237 108.057C611.942 107.769 611.557 107.625 611.084 107.625C610.762 107.625 610.464 107.71 610.192 107.881C609.923 108.047 609.705 108.28 609.538 108.58C609.375 108.879 609.294 109.225 609.294 109.619V115H607.595ZM621.736 118.273V106.273H623.395V107.688H623.537C623.635 107.506 623.777 107.295 623.963 107.057C624.149 106.818 624.406 106.61 624.736 106.432C625.065 106.25 625.501 106.159 626.043 106.159C626.747 106.159 627.376 106.337 627.929 106.693C628.482 107.049 628.916 107.562 629.23 108.233C629.548 108.903 629.707 109.71 629.707 110.653C629.707 111.597 629.55 112.405 629.236 113.08C628.921 113.75 628.49 114.267 627.94 114.631C627.391 114.991 626.764 115.17 626.06 115.17C625.529 115.17 625.096 115.081 624.759 114.903C624.425 114.725 624.164 114.517 623.974 114.278C623.785 114.04 623.639 113.828 623.537 113.642H623.435V118.273H621.736ZM623.401 110.636C623.401 111.25 623.49 111.788 623.668 112.25C623.846 112.712 624.103 113.074 624.44 113.335C624.777 113.593 625.19 113.722 625.679 113.722C626.187 113.722 626.611 113.587 626.952 113.318C627.293 113.045 627.55 112.676 627.724 112.21C627.902 111.744 627.991 111.22 627.991 110.636C627.991 110.061 627.904 109.544 627.73 109.085C627.56 108.627 627.302 108.265 626.957 108C626.616 107.735 626.19 107.602 625.679 107.602C625.187 107.602 624.77 107.729 624.429 107.983C624.092 108.237 623.836 108.591 623.662 109.045C623.488 109.5 623.401 110.03 623.401 110.636ZM635.287 115.176C634.469 115.176 633.755 114.989 633.145 114.614C632.535 114.239 632.062 113.714 631.724 113.04C631.387 112.366 631.219 111.578 631.219 110.676C631.219 109.771 631.387 108.979 631.724 108.301C632.062 107.623 632.535 107.097 633.145 106.722C633.755 106.347 634.469 106.159 635.287 106.159C636.105 106.159 636.819 106.347 637.429 106.722C638.039 107.097 638.512 107.623 638.849 108.301C639.187 108.979 639.355 109.771 639.355 110.676C639.355 111.578 639.187 112.366 638.849 113.04C638.512 113.714 638.039 114.239 637.429 114.614C636.819 114.989 636.105 115.176 635.287 115.176ZM635.293 113.75C635.823 113.75 636.262 113.61 636.611 113.33C636.959 113.049 637.217 112.676 637.384 112.21C637.554 111.744 637.639 111.231 637.639 110.67C637.639 110.114 637.554 109.602 637.384 109.136C637.217 108.667 636.959 108.29 636.611 108.006C636.262 107.722 635.823 107.58 635.293 107.58C634.759 107.58 634.315 107.722 633.963 108.006C633.615 108.29 633.355 108.667 633.185 109.136C633.018 109.602 632.935 110.114 632.935 110.67C632.935 111.231 633.018 111.744 633.185 112.21C633.355 112.676 633.615 113.049 633.963 113.33C634.315 113.61 634.759 113.75 635.293 113.75ZM642.95 109.818V115H641.251V106.273H642.882V107.693H642.99C643.191 107.231 643.505 106.86 643.933 106.58C644.365 106.299 644.909 106.159 645.564 106.159C646.159 106.159 646.679 106.284 647.126 106.534C647.573 106.78 647.92 107.148 648.166 107.636C648.412 108.125 648.536 108.729 648.536 109.449V115H646.837V109.653C646.837 109.021 646.672 108.527 646.342 108.17C646.013 107.811 645.56 107.631 644.984 107.631C644.59 107.631 644.24 107.716 643.933 107.886C643.63 108.057 643.39 108.307 643.212 108.636C643.037 108.962 642.95 109.356 642.95 109.818ZM654.575 115.176C653.715 115.176 652.975 114.992 652.354 114.625C651.736 114.254 651.259 113.733 650.922 113.062C650.589 112.388 650.422 111.598 650.422 110.693C650.422 109.799 650.589 109.011 650.922 108.33C651.259 107.648 651.729 107.116 652.331 106.733C652.937 106.35 653.645 106.159 654.456 106.159C654.948 106.159 655.426 106.241 655.888 106.403C656.35 106.566 656.765 106.822 657.132 107.17C657.5 107.519 657.789 107.972 658.001 108.528C658.214 109.081 658.32 109.754 658.32 110.545V111.148H651.382V109.875H656.655C656.655 109.428 656.564 109.032 656.382 108.688C656.2 108.339 655.945 108.064 655.615 107.864C655.289 107.663 654.907 107.562 654.467 107.562C653.99 107.562 653.573 107.68 653.217 107.915C652.865 108.146 652.592 108.449 652.399 108.824C652.21 109.195 652.115 109.598 652.115 110.034V111.028C652.115 111.612 652.217 112.108 652.422 112.517C652.63 112.926 652.92 113.239 653.291 113.455C653.662 113.667 654.096 113.773 654.592 113.773C654.914 113.773 655.208 113.727 655.473 113.636C655.738 113.542 655.967 113.402 656.161 113.216C656.354 113.03 656.501 112.801 656.604 112.528L658.212 112.818C658.083 113.292 657.852 113.706 657.518 114.062C657.189 114.415 656.774 114.689 656.274 114.886C655.778 115.08 655.212 115.176 654.575 115.176ZM661.903 109.818V115H660.205V106.273H661.835V107.693H661.943C662.144 107.231 662.458 106.86 662.886 106.58C663.318 106.299 663.862 106.159 664.517 106.159C665.112 106.159 665.633 106.284 666.08 106.534C666.527 106.78 666.873 107.148 667.119 107.636C667.366 108.125 667.489 108.729 667.489 109.449V115H665.79V109.653C665.79 109.021 665.625 108.527 665.295 108.17C664.966 107.811 664.513 107.631 663.938 107.631C663.544 107.631 663.193 107.716 662.886 107.886C662.583 108.057 662.343 108.307 662.165 108.636C661.991 108.962 661.903 109.356 661.903 109.818ZM673.841 106.273V107.636H669.074V106.273H673.841ZM670.352 104.182H672.051V112.438C672.051 112.767 672.1 113.015 672.199 113.182C672.297 113.345 672.424 113.456 672.58 113.517C672.739 113.574 672.911 113.602 673.097 113.602C673.233 113.602 673.352 113.593 673.455 113.574C673.557 113.555 673.636 113.54 673.693 113.528L674 114.932C673.902 114.97 673.761 115.008 673.58 115.045C673.398 115.087 673.17 115.11 672.898 115.114C672.451 115.121 672.034 115.042 671.648 114.875C671.261 114.708 670.949 114.451 670.71 114.102C670.472 113.754 670.352 113.316 670.352 112.79V104.182ZM682.119 108.403L680.58 108.676C680.515 108.479 680.413 108.292 680.273 108.114C680.136 107.936 679.951 107.79 679.716 107.676C679.481 107.562 679.188 107.506 678.835 107.506C678.354 107.506 677.953 107.614 677.631 107.83C677.309 108.042 677.148 108.316 677.148 108.653C677.148 108.945 677.256 109.18 677.472 109.358C677.688 109.536 678.036 109.682 678.517 109.795L679.903 110.114C680.706 110.299 681.305 110.585 681.699 110.972C682.093 111.358 682.29 111.86 682.29 112.477C682.29 113 682.138 113.466 681.835 113.875C681.536 114.28 681.117 114.598 680.58 114.83C680.045 115.061 679.426 115.176 678.722 115.176C677.744 115.176 676.947 114.968 676.33 114.551C675.712 114.131 675.333 113.534 675.193 112.761L676.835 112.511C676.938 112.939 677.148 113.263 677.466 113.483C677.784 113.699 678.199 113.807 678.71 113.807C679.267 113.807 679.712 113.691 680.045 113.46C680.379 113.225 680.545 112.939 680.545 112.602C680.545 112.33 680.443 112.1 680.239 111.915C680.038 111.729 679.729 111.589 679.312 111.494L677.835 111.17C677.021 110.985 676.419 110.689 676.028 110.284C675.642 109.879 675.449 109.366 675.449 108.744C675.449 108.229 675.593 107.778 675.881 107.392C676.169 107.006 676.566 106.705 677.074 106.489C677.581 106.269 678.163 106.159 678.818 106.159C679.761 106.159 680.504 106.364 681.045 106.773C681.587 107.178 681.945 107.722 682.119 108.403Z" fill="black"/>
<rect width="80" height="1" transform="translate(706 50.5)" fill="#E6E9F2"/>
<rect x="790" y="26" width="50" height="50" rx="25" fill="#ECF2FF"/>
<rect x="812" y="48" width="6" height="6" rx="3" fill="#0066FF"/>
<path d="M770.349 115V103.364H774.496C775.402 103.364 776.152 103.528 776.746 103.858C777.341 104.187 777.786 104.638 778.082 105.21C778.377 105.778 778.525 106.419 778.525 107.131C778.525 107.847 778.375 108.491 778.076 109.062C777.781 109.631 777.334 110.081 776.735 110.415C776.14 110.744 775.392 110.909 774.491 110.909H771.638V109.42H774.332C774.904 109.42 775.368 109.322 775.724 109.125C776.08 108.924 776.341 108.652 776.508 108.307C776.674 107.962 776.758 107.57 776.758 107.131C776.758 106.691 776.674 106.301 776.508 105.96C776.341 105.619 776.078 105.352 775.718 105.159C775.362 104.966 774.892 104.869 774.309 104.869H772.104V115H770.349ZM782.908 115.193C782.355 115.193 781.855 115.091 781.408 114.886C780.961 114.678 780.607 114.377 780.346 113.983C780.088 113.589 779.96 113.106 779.96 112.534C779.96 112.042 780.054 111.636 780.244 111.318C780.433 111 780.689 110.748 781.011 110.562C781.333 110.377 781.692 110.237 782.09 110.142C782.488 110.047 782.893 109.975 783.306 109.926C783.829 109.866 784.253 109.816 784.579 109.778C784.905 109.737 785.141 109.67 785.289 109.58C785.437 109.489 785.511 109.341 785.511 109.136V109.097C785.511 108.6 785.371 108.216 785.09 107.943C784.814 107.67 784.401 107.534 783.852 107.534C783.28 107.534 782.829 107.661 782.499 107.915C782.174 108.165 781.948 108.443 781.823 108.75L780.227 108.386C780.416 107.856 780.692 107.428 781.056 107.102C781.424 106.773 781.846 106.534 782.323 106.386C782.8 106.235 783.302 106.159 783.829 106.159C784.177 106.159 784.547 106.201 784.937 106.284C785.331 106.364 785.698 106.511 786.039 106.727C786.384 106.943 786.666 107.252 786.886 107.653C787.105 108.051 787.215 108.568 787.215 109.205V115H785.556V113.807H785.488C785.378 114.027 785.213 114.242 784.994 114.455C784.774 114.667 784.492 114.843 784.147 114.983C783.802 115.123 783.389 115.193 782.908 115.193ZM783.278 113.83C783.747 113.83 784.149 113.737 784.482 113.551C784.819 113.366 785.075 113.123 785.249 112.824C785.427 112.521 785.516 112.197 785.516 111.852V110.727C785.456 110.788 785.338 110.845 785.164 110.898C784.994 110.947 784.799 110.991 784.579 111.028C784.359 111.062 784.145 111.095 783.937 111.125C783.728 111.152 783.554 111.174 783.414 111.193C783.085 111.235 782.783 111.305 782.511 111.403C782.242 111.502 782.026 111.644 781.863 111.83C781.704 112.011 781.624 112.254 781.624 112.557C781.624 112.977 781.78 113.295 782.09 113.511C782.401 113.723 782.797 113.83 783.278 113.83ZM793.137 118.455C792.444 118.455 791.847 118.364 791.347 118.182C790.851 118 790.446 117.759 790.131 117.46C789.817 117.161 789.582 116.833 789.427 116.477L790.887 115.875C790.989 116.042 791.126 116.218 791.296 116.403C791.47 116.593 791.705 116.754 792.001 116.886C792.3 117.019 792.684 117.085 793.154 117.085C793.798 117.085 794.33 116.928 794.751 116.614C795.171 116.303 795.381 115.807 795.381 115.125V113.409H795.273C795.171 113.595 795.023 113.801 794.83 114.028C794.641 114.256 794.379 114.453 794.046 114.619C793.713 114.786 793.279 114.869 792.745 114.869C792.056 114.869 791.434 114.708 790.881 114.386C790.332 114.061 789.897 113.581 789.575 112.949C789.256 112.312 789.097 111.53 789.097 110.602C789.097 109.674 789.254 108.879 789.569 108.216C789.887 107.553 790.323 107.045 790.876 106.693C791.429 106.337 792.056 106.159 792.756 106.159C793.298 106.159 793.736 106.25 794.069 106.432C794.402 106.61 794.662 106.818 794.847 107.057C795.037 107.295 795.183 107.506 795.285 107.688H795.41V106.273H797.075V115.193C797.075 115.943 796.9 116.559 796.552 117.04C796.203 117.521 795.732 117.877 795.137 118.108C794.546 118.339 793.879 118.455 793.137 118.455ZM793.12 113.46C793.609 113.46 794.022 113.347 794.359 113.119C794.7 112.888 794.957 112.559 795.131 112.131C795.309 111.699 795.398 111.182 795.398 110.58C795.398 109.992 795.311 109.475 795.137 109.028C794.963 108.581 794.707 108.233 794.37 107.983C794.033 107.729 793.616 107.602 793.12 107.602C792.609 107.602 792.183 107.735 791.842 108C791.501 108.261 791.243 108.617 791.069 109.068C790.898 109.519 790.813 110.023 790.813 110.58C790.813 111.152 790.9 111.653 791.075 112.085C791.249 112.517 791.506 112.854 791.847 113.097C792.192 113.339 792.616 113.46 793.12 113.46ZM803.114 115.176C802.254 115.176 801.514 114.992 800.893 114.625C800.275 114.254 799.798 113.733 799.461 113.062C799.128 112.388 798.961 111.598 798.961 110.693C798.961 109.799 799.128 109.011 799.461 108.33C799.798 107.648 800.268 107.116 800.87 106.733C801.476 106.35 802.184 106.159 802.995 106.159C803.487 106.159 803.965 106.241 804.427 106.403C804.889 106.566 805.304 106.822 805.671 107.17C806.039 107.519 806.328 107.972 806.54 108.528C806.753 109.081 806.859 109.754 806.859 110.545V111.148H799.921V109.875H805.194C805.194 109.428 805.103 109.032 804.921 108.688C804.739 108.339 804.484 108.064 804.154 107.864C803.828 107.663 803.446 107.562 803.006 107.562C802.529 107.562 802.112 107.68 801.756 107.915C801.404 108.146 801.131 108.449 800.938 108.824C800.749 109.195 800.654 109.598 800.654 110.034V111.028C800.654 111.612 800.756 112.108 800.961 112.517C801.169 112.926 801.459 113.239 801.83 113.455C802.201 113.667 802.635 113.773 803.131 113.773C803.453 113.773 803.747 113.727 804.012 113.636C804.277 113.542 804.506 113.402 804.7 113.216C804.893 113.03 805.04 112.801 805.143 112.528L806.751 112.818C806.622 113.292 806.391 113.706 806.058 114.062C805.728 114.415 805.313 114.689 804.813 114.886C804.317 115.08 803.751 115.176 803.114 115.176ZM814.677 103.364V115H812.978V103.364H814.677ZM819.502 115.193C818.949 115.193 818.449 115.091 818.002 114.886C817.555 114.678 817.201 114.377 816.94 113.983C816.682 113.589 816.553 113.106 816.553 112.534C816.553 112.042 816.648 111.636 816.837 111.318C817.027 111 817.282 110.748 817.604 110.562C817.926 110.377 818.286 110.237 818.684 110.142C819.082 110.047 819.487 109.975 819.9 109.926C820.423 109.866 820.847 109.816 821.173 109.778C821.498 109.737 821.735 109.67 821.883 109.58C822.031 109.489 822.104 109.341 822.104 109.136V109.097C822.104 108.6 821.964 108.216 821.684 107.943C821.407 107.67 820.995 107.534 820.445 107.534C819.873 107.534 819.423 107.661 819.093 107.915C818.767 108.165 818.542 108.443 818.417 108.75L816.82 108.386C817.01 107.856 817.286 107.428 817.65 107.102C818.017 106.773 818.44 106.534 818.917 106.386C819.394 106.235 819.896 106.159 820.423 106.159C820.771 106.159 821.14 106.201 821.531 106.284C821.924 106.364 822.292 106.511 822.633 106.727C822.978 106.943 823.26 107.252 823.479 107.653C823.699 108.051 823.809 108.568 823.809 109.205V115H822.15V113.807H822.082C821.972 114.027 821.807 114.242 821.587 114.455C821.368 114.667 821.085 114.843 820.741 114.983C820.396 115.123 819.983 115.193 819.502 115.193ZM819.871 113.83C820.341 113.83 820.743 113.737 821.076 113.551C821.413 113.366 821.669 113.123 821.843 112.824C822.021 112.521 822.11 112.197 822.11 111.852V110.727C822.049 110.788 821.932 110.845 821.758 110.898C821.587 110.947 821.392 110.991 821.173 111.028C820.953 111.062 820.739 111.095 820.531 111.125C820.322 111.152 820.148 111.174 820.008 111.193C819.678 111.235 819.377 111.305 819.104 111.403C818.835 111.502 818.62 111.644 818.457 111.83C818.298 112.011 818.218 112.254 818.218 112.557C818.218 112.977 818.373 113.295 818.684 113.511C818.995 113.723 819.39 113.83 819.871 113.83ZM826.833 118.273C826.579 118.273 826.348 118.252 826.14 118.21C825.932 118.172 825.776 118.131 825.674 118.085L826.083 116.693C826.394 116.777 826.67 116.813 826.913 116.801C827.155 116.79 827.369 116.699 827.555 116.528C827.744 116.358 827.911 116.08 828.055 115.693L828.265 115.114L825.072 106.273H826.89L829.1 113.045H829.191L831.401 106.273H833.225L829.629 116.165C829.462 116.619 829.25 117.004 828.992 117.318C828.735 117.636 828.428 117.875 828.072 118.034C827.716 118.193 827.303 118.273 826.833 118.273ZM838.201 115.176C837.383 115.176 836.669 114.989 836.059 114.614C835.449 114.239 834.976 113.714 834.638 113.04C834.301 112.366 834.133 111.578 834.133 110.676C834.133 109.771 834.301 108.979 834.638 108.301C834.976 107.623 835.449 107.097 836.059 106.722C836.669 106.347 837.383 106.159 838.201 106.159C839.019 106.159 839.733 106.347 840.343 106.722C840.953 107.097 841.426 107.623 841.763 108.301C842.101 108.979 842.269 109.771 842.269 110.676C842.269 111.578 842.101 112.366 841.763 113.04C841.426 113.714 840.953 114.239 840.343 114.614C839.733 114.989 839.019 115.176 838.201 115.176ZM838.207 113.75C838.737 113.75 839.176 113.61 839.525 113.33C839.873 113.049 840.131 112.676 840.298 112.21C840.468 111.744 840.553 111.231 840.553 110.67C840.553 110.114 840.468 109.602 840.298 109.136C840.131 108.667 839.873 108.29 839.525 108.006C839.176 107.722 838.737 107.58 838.207 107.58C837.673 107.58 837.229 107.722 836.877 108.006C836.529 108.29 836.269 108.667 836.099 109.136C835.932 109.602 835.849 110.114 835.849 110.67C835.849 111.231 835.932 111.744 836.099 112.21C836.269 112.676 836.529 113.049 836.877 113.33C837.229 113.61 837.673 113.75 838.207 113.75ZM849.694 111.381V106.273H851.398V115H849.728V113.489H849.637C849.436 113.955 849.114 114.343 848.671 114.653C848.232 114.96 847.684 115.114 847.029 115.114C846.469 115.114 845.972 114.991 845.54 114.744C845.112 114.494 844.775 114.125 844.529 113.636C844.287 113.148 844.165 112.544 844.165 111.824V106.273H845.864V111.619C845.864 112.214 846.029 112.687 846.359 113.04C846.688 113.392 847.116 113.568 847.643 113.568C847.961 113.568 848.277 113.489 848.592 113.33C848.91 113.17 849.173 112.93 849.381 112.608C849.594 112.286 849.698 111.877 849.694 111.381ZM857.755 106.273V107.636H852.988V106.273H857.755ZM854.266 104.182H855.965V112.438C855.965 112.767 856.014 113.015 856.113 113.182C856.211 113.345 856.338 113.456 856.494 113.517C856.653 113.574 856.825 113.602 857.011 113.602C857.147 113.602 857.266 113.593 857.369 113.574C857.471 113.555 857.55 113.54 857.607 113.528L857.914 114.932C857.816 114.97 857.675 115.008 857.494 115.045C857.312 115.087 857.085 115.11 856.812 115.114C856.365 115.121 855.948 115.042 855.562 114.875C855.175 114.708 854.863 114.451 854.624 114.102C854.386 113.754 854.266 113.316 854.266 112.79V104.182ZM866.033 108.403L864.494 108.676C864.429 108.479 864.327 108.292 864.187 108.114C864.05 107.936 863.865 107.79 863.63 107.676C863.395 107.562 863.102 107.506 862.749 107.506C862.268 107.506 861.867 107.614 861.545 107.83C861.223 108.042 861.062 108.316 861.062 108.653C861.062 108.945 861.17 109.18 861.386 109.358C861.602 109.536 861.95 109.682 862.431 109.795L863.817 110.114C864.621 110.299 865.219 110.585 865.613 110.972C866.007 111.358 866.204 111.86 866.204 112.477C866.204 113 866.052 113.466 865.749 113.875C865.45 114.28 865.031 114.598 864.494 114.83C863.96 115.061 863.34 115.176 862.636 115.176C861.658 115.176 860.861 114.968 860.244 114.551C859.626 114.131 859.247 113.534 859.107 112.761L860.749 112.511C860.852 112.939 861.062 113.263 861.38 113.483C861.698 113.699 862.113 113.807 862.624 113.807C863.181 113.807 863.626 113.691 863.96 113.46C864.293 113.225 864.46 112.939 864.46 112.602C864.46 112.33 864.357 112.1 864.153 111.915C863.952 111.729 863.643 111.589 863.227 111.494L861.749 111.17C860.935 110.985 860.333 110.689 859.942 110.284C859.556 109.879 859.363 109.366 859.363 108.744C859.363 108.229 859.507 107.778 859.795 107.392C860.083 107.006 860.48 106.705 860.988 106.489C861.496 106.269 862.077 106.159 862.732 106.159C863.675 106.159 864.418 106.364 864.96 106.773C865.501 107.178 865.859 107.722 866.033 108.403Z" fill="black"/>
</svg>
