<svg width="360" height="251" viewBox="0 0 360 251" fill="none" xmlns="http://www.w3.org/2000/svg">
<rect x="34" width="50" height="50" rx="25" fill="#ECF2FF"/>
<rect x="56" y="22" width="6" height="6" rx="3" fill="#0066FF"/>
<path d="M119.427 30.5V18.8636H123.688C124.514 18.8636 125.198 19 125.739 19.2727C126.281 19.5417 126.686 19.9072 126.955 20.3693C127.224 20.8277 127.359 21.3447 127.359 21.9205C127.359 22.4053 127.27 22.8144 127.092 23.1477C126.914 23.4773 126.675 23.7424 126.376 23.9432C126.08 24.1402 125.754 24.2841 125.398 24.375V24.4886C125.785 24.5076 126.162 24.6326 126.529 24.8636C126.9 25.0909 127.207 25.4148 127.45 25.8352C127.692 26.2557 127.813 26.767 127.813 27.3693C127.813 27.964 127.673 28.4981 127.393 28.9716C127.116 29.4413 126.688 29.8144 126.109 30.0909C125.529 30.3636 124.789 30.5 123.887 30.5H119.427ZM121.183 28.9943H123.717C124.558 28.9943 125.16 28.8314 125.523 28.5057C125.887 28.1799 126.069 27.7727 126.069 27.2841C126.069 26.9167 125.976 26.5795 125.79 26.2727C125.605 25.9659 125.34 25.7216 124.995 25.5398C124.654 25.358 124.249 25.267 123.779 25.267H121.183V28.9943ZM121.183 23.8977H123.535C123.929 23.8977 124.283 23.822 124.597 23.6705C124.915 23.5189 125.167 23.3068 125.353 23.0341C125.542 22.7576 125.637 22.4318 125.637 22.0568C125.637 21.5758 125.469 21.1723 125.131 20.8466C124.794 20.5208 124.277 20.358 123.58 20.358H121.183V23.8977ZM132.299 30.6932C131.746 30.6932 131.246 30.5909 130.799 30.3864C130.352 30.178 129.998 29.8769 129.737 29.483C129.479 29.089 129.35 28.6061 129.35 28.0341C129.35 27.5417 129.445 27.1364 129.634 26.8182C129.824 26.5 130.079 26.2481 130.401 26.0625C130.723 25.8769 131.083 25.7367 131.481 25.642C131.879 25.5473 132.284 25.4754 132.697 25.4261C133.219 25.3655 133.644 25.3163 133.969 25.2784C134.295 25.2367 134.532 25.1705 134.68 25.0795C134.827 24.9886 134.901 24.8409 134.901 24.6364V24.5966C134.901 24.1004 134.761 23.7159 134.481 23.4432C134.204 23.1705 133.791 23.0341 133.242 23.0341C132.67 23.0341 132.219 23.161 131.89 23.4148C131.564 23.6648 131.339 23.9432 131.214 24.25L129.617 23.8864C129.807 23.3561 130.083 22.928 130.447 22.6023C130.814 22.2727 131.237 22.0341 131.714 21.8864C132.191 21.7348 132.693 21.6591 133.219 21.6591C133.568 21.6591 133.937 21.7008 134.327 21.7841C134.721 21.8636 135.089 22.0114 135.43 22.2273C135.774 22.4432 136.057 22.7519 136.276 23.1534C136.496 23.5511 136.606 24.0682 136.606 24.7045V30.5H134.947V29.3068H134.879C134.769 29.5265 134.604 29.7424 134.384 29.9545C134.165 30.1667 133.882 30.3428 133.538 30.483C133.193 30.6231 132.78 30.6932 132.299 30.6932ZM132.668 29.3295C133.138 29.3295 133.54 29.2367 133.873 29.0511C134.21 28.8655 134.466 28.6231 134.64 28.3239C134.818 28.0208 134.907 27.697 134.907 27.3523V26.2273C134.846 26.2879 134.729 26.3447 134.555 26.3977C134.384 26.447 134.189 26.4905 133.969 26.5284C133.75 26.5625 133.536 26.5947 133.327 26.625C133.119 26.6515 132.945 26.6742 132.805 26.6932C132.475 26.7348 132.174 26.8049 131.901 26.9034C131.632 27.0019 131.416 27.1439 131.254 27.3295C131.094 27.5114 131.015 27.7538 131.015 28.0568C131.015 28.4773 131.17 28.7955 131.481 29.0114C131.791 29.2235 132.187 29.3295 132.668 29.3295ZM145.408 23.9034L143.869 24.1761C143.804 23.9792 143.702 23.7917 143.562 23.6136C143.425 23.4356 143.24 23.2898 143.005 23.1761C142.77 23.0625 142.477 23.0057 142.124 23.0057C141.643 23.0057 141.242 23.1136 140.92 23.3295C140.598 23.5417 140.437 23.8163 140.437 24.1534C140.437 24.4451 140.545 24.6799 140.761 24.858C140.977 25.036 141.325 25.1818 141.806 25.2955L143.192 25.6136C143.996 25.7992 144.594 26.0852 144.988 26.4716C145.382 26.858 145.579 27.3598 145.579 27.9773C145.579 28.5 145.427 28.9659 145.124 29.375C144.825 29.7803 144.406 30.0985 143.869 30.3295C143.335 30.5606 142.715 30.6761 142.011 30.6761C141.033 30.6761 140.236 30.4678 139.619 30.0511C139.001 29.6307 138.622 29.0341 138.482 28.2614L140.124 28.0114C140.227 28.4394 140.437 28.7633 140.755 28.983C141.073 29.1989 141.488 29.3068 141.999 29.3068C142.556 29.3068 143.001 29.1913 143.335 28.9602C143.668 28.7254 143.835 28.4394 143.835 28.1023C143.835 27.8295 143.732 27.6004 143.528 27.4148C143.327 27.2292 143.018 27.089 142.602 26.9943L141.124 26.6705C140.31 26.4848 139.708 26.1894 139.317 25.7841C138.931 25.3788 138.738 24.8655 138.738 24.2443C138.738 23.7292 138.882 23.2784 139.17 22.892C139.458 22.5057 139.855 22.2045 140.363 21.9886C140.871 21.7689 141.452 21.6591 142.107 21.6591C143.05 21.6591 143.793 21.8636 144.335 22.2727C144.876 22.678 145.234 23.2216 145.408 23.9034ZM147.447 30.5V21.7727H149.146V30.5H147.447ZM148.305 20.4261C148.009 20.4261 147.755 20.3277 147.543 20.1307C147.335 19.9299 147.231 19.6913 147.231 19.4148C147.231 19.1345 147.335 18.8958 147.543 18.6989C147.755 18.4981 148.009 18.3977 148.305 18.3977C148.6 18.3977 148.852 18.4981 149.06 18.6989C149.272 18.8958 149.379 19.1345 149.379 19.4148C149.379 19.6913 149.272 19.9299 149.06 20.1307C148.852 20.3277 148.6 20.4261 148.305 20.4261ZM155.107 30.6761C154.263 30.6761 153.535 30.4848 152.925 30.1023C152.319 29.7159 151.853 29.1837 151.528 28.5057C151.202 27.8277 151.039 27.0511 151.039 26.1761C151.039 25.2898 151.206 24.5076 151.539 23.8295C151.872 23.1477 152.342 22.6155 152.948 22.233C153.554 21.8504 154.268 21.6591 155.09 21.6591C155.753 21.6591 156.344 21.7822 156.863 22.0284C157.382 22.2708 157.8 22.6117 158.119 23.0511C158.441 23.4905 158.632 24.0038 158.692 24.5909H157.039C156.948 24.1818 156.74 23.8295 156.414 23.5341C156.092 23.2386 155.66 23.0909 155.119 23.0909C154.645 23.0909 154.23 23.2159 153.874 23.4659C153.522 23.7121 153.247 24.0644 153.05 24.5227C152.853 24.9773 152.755 25.5152 152.755 26.1364C152.755 26.7727 152.852 27.322 153.045 27.7841C153.238 28.2462 153.511 28.6042 153.863 28.858C154.219 29.1117 154.638 29.2386 155.119 29.2386C155.441 29.2386 155.732 29.1799 155.994 29.0625C156.259 28.9413 156.48 28.7689 156.658 28.5455C156.84 28.322 156.967 28.053 157.039 27.7386H158.692C158.632 28.303 158.448 28.8068 158.141 29.25C157.835 29.6932 157.424 30.0417 156.908 30.2955C156.397 30.5492 155.797 30.6761 155.107 30.6761ZM168.505 30.6761C167.645 30.6761 166.905 30.4924 166.283 30.125C165.666 29.7538 165.189 29.233 164.852 28.5625C164.518 27.8883 164.352 27.0985 164.352 26.1932C164.352 25.2992 164.518 24.5114 164.852 23.8295C165.189 23.1477 165.658 22.6155 166.261 22.233C166.867 21.8504 167.575 21.6591 168.386 21.6591C168.878 21.6591 169.355 21.7405 169.817 21.9034C170.28 22.0663 170.694 22.322 171.062 22.6705C171.429 23.0189 171.719 23.4716 171.931 24.0284C172.143 24.5814 172.249 25.2538 172.249 26.0455V26.6477H165.312V25.375H170.585C170.585 24.928 170.494 24.5322 170.312 24.1875C170.13 23.839 169.874 23.5644 169.545 23.3636C169.219 23.1629 168.836 23.0625 168.397 23.0625C167.92 23.0625 167.503 23.1799 167.147 23.4148C166.795 23.6458 166.522 23.9489 166.329 24.3239C166.139 24.6951 166.045 25.0985 166.045 25.5341V26.5284C166.045 27.1117 166.147 27.608 166.352 28.017C166.56 28.4261 166.85 28.7386 167.221 28.9545C167.592 29.1667 168.026 29.2727 168.522 29.2727C168.844 29.2727 169.138 29.2273 169.403 29.1364C169.668 29.0417 169.897 28.9015 170.09 28.7159C170.283 28.5303 170.431 28.3011 170.533 28.0284L172.141 28.3182C172.013 28.7917 171.781 29.2064 171.448 29.5625C171.119 29.9148 170.704 30.1894 170.204 30.3864C169.708 30.5795 169.141 30.6761 168.505 30.6761ZM175.833 18.8636V30.5H174.134V18.8636H175.833ZM181.88 30.6761C181.02 30.6761 180.28 30.4924 179.658 30.125C179.041 29.7538 178.564 29.233 178.227 28.5625C177.893 27.8883 177.727 27.0985 177.727 26.1932C177.727 25.2992 177.893 24.5114 178.227 23.8295C178.564 23.1477 179.033 22.6155 179.636 22.233C180.242 21.8504 180.95 21.6591 181.761 21.6591C182.253 21.6591 182.73 21.7405 183.192 21.9034C183.655 22.0663 184.069 22.322 184.437 22.6705C184.804 23.0189 185.094 23.4716 185.306 24.0284C185.518 24.5814 185.624 25.2538 185.624 26.0455V26.6477H178.687V25.375H183.96C183.96 24.928 183.869 24.5322 183.687 24.1875C183.505 23.839 183.249 23.5644 182.92 23.3636C182.594 23.1629 182.211 23.0625 181.772 23.0625C181.295 23.0625 180.878 23.1799 180.522 23.4148C180.17 23.6458 179.897 23.9489 179.704 24.3239C179.514 24.6951 179.42 25.0985 179.42 25.5341V26.5284C179.42 27.1117 179.522 27.608 179.727 28.017C179.935 28.4261 180.225 28.7386 180.596 28.9545C180.967 29.1667 181.401 29.2727 181.897 29.2727C182.219 29.2727 182.513 29.2273 182.778 29.1364C183.043 29.0417 183.272 28.9015 183.465 28.7159C183.658 28.5303 183.806 28.3011 183.908 28.0284L185.516 28.3182C185.388 28.7917 185.156 29.2064 184.823 29.5625C184.494 29.9148 184.079 30.1894 183.579 30.3864C183.083 30.5795 182.516 30.6761 181.88 30.6761ZM187.509 30.5V21.7727H189.14V23.1932H189.248C189.43 22.7121 189.727 22.3371 190.14 22.0682C190.553 21.7955 191.047 21.6591 191.623 21.6591C192.206 21.6591 192.695 21.7955 193.089 22.0682C193.487 22.3409 193.78 22.7159 193.969 23.1932H194.06C194.269 22.7273 194.6 22.3561 195.055 22.0795C195.509 21.7992 196.051 21.6591 196.68 21.6591C197.471 21.6591 198.117 21.9072 198.617 22.4034C199.121 22.8996 199.373 23.6477 199.373 24.6477V30.5H197.674V24.8068C197.674 24.2159 197.513 23.7879 197.191 23.5227C196.869 23.2576 196.485 23.125 196.038 23.125C195.485 23.125 195.055 23.2955 194.748 23.6364C194.441 23.9735 194.288 24.4072 194.288 24.9375V30.5H192.594V24.6989C192.594 24.2254 192.447 23.8447 192.151 23.5568C191.856 23.2689 191.471 23.125 190.998 23.125C190.676 23.125 190.379 23.2102 190.106 23.3807C189.837 23.5473 189.619 23.7803 189.452 24.0795C189.29 24.3788 189.208 24.7254 189.208 25.1193V30.5H187.509ZM205.411 30.6761C204.551 30.6761 203.811 30.4924 203.19 30.125C202.572 29.7538 202.095 29.233 201.758 28.5625C201.424 27.8883 201.258 27.0985 201.258 26.1932C201.258 25.2992 201.424 24.5114 201.758 23.8295C202.095 23.1477 202.565 22.6155 203.167 22.233C203.773 21.8504 204.481 21.6591 205.292 21.6591C205.784 21.6591 206.262 21.7405 206.724 21.9034C207.186 22.0663 207.601 22.322 207.968 22.6705C208.335 23.0189 208.625 23.4716 208.837 24.0284C209.049 24.5814 209.156 25.2538 209.156 26.0455V26.6477H202.218V25.375H207.491C207.491 24.928 207.4 24.5322 207.218 24.1875C207.036 23.839 206.781 23.5644 206.451 23.3636C206.125 23.1629 205.743 23.0625 205.303 23.0625C204.826 23.0625 204.409 23.1799 204.053 23.4148C203.701 23.6458 203.428 23.9489 203.235 24.3239C203.046 24.6951 202.951 25.0985 202.951 25.5341V26.5284C202.951 27.1117 203.053 27.608 203.258 28.017C203.466 28.4261 203.756 28.7386 204.127 28.9545C204.498 29.1667 204.932 29.2727 205.428 29.2727C205.75 29.2727 206.044 29.2273 206.309 29.1364C206.574 29.0417 206.803 28.9015 206.996 28.7159C207.19 28.5303 207.337 28.3011 207.44 28.0284L209.048 28.3182C208.919 28.7917 208.688 29.2064 208.354 29.5625C208.025 29.9148 207.61 30.1894 207.11 30.3864C206.614 30.5795 206.048 30.6761 205.411 30.6761ZM212.739 25.3182V30.5H211.04V21.7727H212.671V23.1932H212.779C212.98 22.7311 213.294 22.3598 213.722 22.0795C214.154 21.7992 214.698 21.6591 215.353 21.6591C215.948 21.6591 216.469 21.7841 216.915 22.0341C217.362 22.2803 217.709 22.6477 217.955 23.1364C218.201 23.625 218.325 24.2292 218.325 24.9489V30.5H216.626V25.1534C216.626 24.5208 216.461 24.0265 216.131 23.6705C215.802 23.3106 215.349 23.1307 214.773 23.1307C214.379 23.1307 214.029 23.2159 213.722 23.3864C213.419 23.5568 213.179 23.8068 213.001 24.1364C212.826 24.4621 212.739 24.8561 212.739 25.3182ZM224.677 21.7727V23.1364H219.91V21.7727H224.677ZM221.188 19.6818H222.887V27.9375C222.887 28.267 222.936 28.5152 223.035 28.6818C223.133 28.8447 223.26 28.9564 223.415 29.017C223.575 29.0739 223.747 29.1023 223.933 29.1023C224.069 29.1023 224.188 29.0928 224.29 29.0739C224.393 29.0549 224.472 29.0398 224.529 29.0284L224.836 30.4318C224.737 30.4697 224.597 30.5076 224.415 30.5455C224.234 30.5871 224.006 30.6098 223.734 30.6136C223.287 30.6212 222.87 30.5417 222.484 30.375C222.097 30.2083 221.785 29.9508 221.546 29.6023C221.308 29.2538 221.188 28.8163 221.188 28.2898V19.6818ZM232.955 23.9034L231.415 24.1761C231.351 23.9792 231.249 23.7917 231.109 23.6136C230.972 23.4356 230.787 23.2898 230.552 23.1761C230.317 23.0625 230.023 23.0057 229.671 23.0057C229.19 23.0057 228.789 23.1136 228.467 23.3295C228.145 23.5417 227.984 23.8163 227.984 24.1534C227.984 24.4451 228.092 24.6799 228.308 24.858C228.523 25.036 228.872 25.1818 229.353 25.2955L230.739 25.6136C231.542 25.7992 232.141 26.0852 232.535 26.4716C232.929 26.858 233.126 27.3598 233.126 27.9773C233.126 28.5 232.974 28.9659 232.671 29.375C232.372 29.7803 231.953 30.0985 231.415 30.3295C230.881 30.5606 230.262 30.6761 229.558 30.6761C228.58 30.6761 227.783 30.4678 227.165 30.0511C226.548 29.6307 226.169 29.0341 226.029 28.2614L227.671 28.0114C227.773 28.4394 227.984 28.7633 228.302 28.983C228.62 29.1989 229.035 29.3068 229.546 29.3068C230.103 29.3068 230.548 29.1913 230.881 28.9602C231.215 28.7254 231.381 28.4394 231.381 28.1023C231.381 27.8295 231.279 27.6004 231.075 27.4148C230.874 27.2292 230.565 27.089 230.148 26.9943L228.671 26.6705C227.857 26.4848 227.254 26.1894 226.864 25.7841C226.478 25.3788 226.285 24.8655 226.285 24.2443C226.285 23.7292 226.429 23.2784 226.717 22.892C227.004 22.5057 227.402 22.2045 227.91 21.9886C228.417 21.7689 228.999 21.6591 229.654 21.6591C230.597 21.6591 231.34 21.8636 231.881 22.2727C232.423 22.678 232.781 23.2216 232.955 23.9034Z" fill="black"/>
<rect x="34" y="67" width="50" height="50" rx="25" fill="#ECF2FF"/>
<rect x="56" y="89" width="6" height="6" rx="3" fill="#0066FF"/>
<path d="M128.959 89.6477H127.186C127.118 89.2689 126.991 88.9356 126.805 88.6477C126.62 88.3598 126.393 88.1155 126.124 87.9148C125.855 87.714 125.554 87.5625 125.22 87.4602C124.891 87.358 124.54 87.3068 124.169 87.3068C123.499 87.3068 122.898 87.4754 122.368 87.8125C121.841 88.1496 121.425 88.6439 121.118 89.2955C120.815 89.947 120.663 90.7424 120.663 91.6818C120.663 92.6288 120.815 93.428 121.118 94.0795C121.425 94.7311 121.843 95.2235 122.374 95.5568C122.904 95.8902 123.5 96.0568 124.163 96.0568C124.531 96.0568 124.879 96.0076 125.209 95.9091C125.542 95.8068 125.843 95.6572 126.112 95.4602C126.381 95.2633 126.608 95.0227 126.794 94.7386C126.983 94.4508 127.114 94.1212 127.186 93.75L128.959 93.7557C128.864 94.3277 128.68 94.8542 128.408 95.3352C128.139 95.8125 127.792 96.2254 127.368 96.5739C126.947 96.9186 126.466 97.1856 125.925 97.375C125.383 97.5644 124.792 97.6591 124.152 97.6591C123.144 97.6591 122.247 97.4205 121.459 96.9432C120.671 96.4621 120.05 95.7746 119.595 94.8807C119.144 93.9867 118.919 92.9205 118.919 91.6818C118.919 90.4394 119.146 89.3731 119.601 88.483C120.055 87.589 120.677 86.9034 121.464 86.4261C122.252 85.9451 123.148 85.7045 124.152 85.7045C124.769 85.7045 125.345 85.7936 125.879 85.9716C126.417 86.1458 126.9 86.4034 127.328 86.7443C127.756 87.0814 128.11 87.4943 128.391 87.983C128.671 88.4678 128.86 89.0227 128.959 89.6477ZM134.599 97.6761C133.781 97.6761 133.067 97.4886 132.457 97.1136C131.848 96.7386 131.374 96.214 131.037 95.5398C130.7 94.8655 130.531 94.0777 130.531 93.1761C130.531 92.2708 130.7 91.4792 131.037 90.8011C131.374 90.1231 131.848 89.5966 132.457 89.2216C133.067 88.8466 133.781 88.6591 134.599 88.6591C135.418 88.6591 136.132 88.8466 136.741 89.2216C137.351 89.5966 137.825 90.1231 138.162 90.8011C138.499 91.4792 138.668 92.2708 138.668 93.1761C138.668 94.0777 138.499 94.8655 138.162 95.5398C137.825 96.214 137.351 96.7386 136.741 97.1136C136.132 97.4886 135.418 97.6761 134.599 97.6761ZM134.605 96.25C135.135 96.25 135.575 96.1098 135.923 95.8295C136.272 95.5492 136.529 95.1761 136.696 94.7102C136.866 94.2443 136.952 93.7311 136.952 93.1705C136.952 92.6136 136.866 92.1023 136.696 91.6364C136.529 91.1667 136.272 90.7898 135.923 90.5057C135.575 90.2216 135.135 90.0795 134.605 90.0795C134.071 90.0795 133.628 90.2216 133.276 90.5057C132.927 90.7898 132.668 91.1667 132.497 91.6364C132.33 92.1023 132.247 92.6136 132.247 93.1705C132.247 93.7311 132.33 94.2443 132.497 94.7102C132.668 95.1761 132.927 95.5492 133.276 95.8295C133.628 96.1098 134.071 96.25 134.605 96.25ZM140.564 97.5V88.7727H142.195V90.1932H142.303C142.484 89.7121 142.782 89.3371 143.195 89.0682C143.607 88.7955 144.102 88.6591 144.678 88.6591C145.261 88.6591 145.75 88.7955 146.143 89.0682C146.541 89.3409 146.835 89.7159 147.024 90.1932H147.115C147.323 89.7273 147.655 89.3561 148.109 89.0795C148.564 88.7992 149.106 88.6591 149.734 88.6591C150.526 88.6591 151.172 88.9072 151.672 89.4034C152.176 89.8996 152.428 90.6477 152.428 91.6477V97.5H150.729V91.8068C150.729 91.2159 150.568 90.7879 150.246 90.5227C149.924 90.2576 149.539 90.125 149.092 90.125C148.539 90.125 148.109 90.2955 147.803 90.6364C147.496 90.9735 147.342 91.4072 147.342 91.9375V97.5H145.649V91.6989C145.649 91.2254 145.501 90.8447 145.206 90.5568C144.911 90.2689 144.526 90.125 144.053 90.125C143.731 90.125 143.433 90.2102 143.161 90.3807C142.892 90.5473 142.674 90.7803 142.507 91.0795C142.344 91.3788 142.263 91.7254 142.263 92.1193V97.5H140.564ZM154.705 100.773V88.7727H156.364V90.1875H156.506C156.604 90.0057 156.746 89.7955 156.932 89.5568C157.117 89.3182 157.375 89.1098 157.705 88.9318C158.034 88.75 158.47 88.6591 159.011 88.6591C159.716 88.6591 160.345 88.8371 160.898 89.1932C161.451 89.5492 161.884 90.0625 162.199 90.733C162.517 91.4034 162.676 92.2102 162.676 93.1534C162.676 94.0966 162.519 94.9053 162.205 95.5795C161.89 96.25 161.458 96.767 160.909 97.1307C160.36 97.4905 159.733 97.6705 159.028 97.6705C158.498 97.6705 158.064 97.5814 157.727 97.4034C157.394 97.2254 157.133 97.017 156.943 96.7784C156.754 96.5398 156.608 96.3277 156.506 96.142H156.403V100.773H154.705ZM156.369 93.1364C156.369 93.75 156.458 94.2879 156.636 94.75C156.814 95.2121 157.072 95.5739 157.409 95.8352C157.746 96.0928 158.159 96.2216 158.648 96.2216C159.155 96.2216 159.58 96.0871 159.92 95.8182C160.261 95.5455 160.519 95.1761 160.693 94.7102C160.871 94.2443 160.96 93.7197 160.96 93.1364C160.96 92.5606 160.873 92.0436 160.699 91.5852C160.528 91.1269 160.271 90.7652 159.926 90.5C159.585 90.2348 159.159 90.1023 158.648 90.1023C158.155 90.1023 157.739 90.2292 157.398 90.483C157.061 90.7367 156.805 91.0909 156.631 91.5455C156.456 92 156.369 92.5303 156.369 93.1364ZM168.256 97.6761C167.438 97.6761 166.723 97.4886 166.114 97.1136C165.504 96.7386 165.03 96.214 164.693 95.5398C164.356 94.8655 164.188 94.0777 164.188 93.1761C164.188 92.2708 164.356 91.4792 164.693 90.8011C165.03 90.1231 165.504 89.5966 166.114 89.2216C166.723 88.8466 167.438 88.6591 168.256 88.6591C169.074 88.6591 169.788 88.8466 170.398 89.2216C171.008 89.5966 171.481 90.1231 171.818 90.8011C172.155 91.4792 172.324 92.2708 172.324 93.1761C172.324 94.0777 172.155 94.8655 171.818 95.5398C171.481 96.214 171.008 96.7386 170.398 97.1136C169.788 97.4886 169.074 97.6761 168.256 97.6761ZM168.261 96.25C168.792 96.25 169.231 96.1098 169.58 95.8295C169.928 95.5492 170.186 95.1761 170.352 94.7102C170.523 94.2443 170.608 93.7311 170.608 93.1705C170.608 92.6136 170.523 92.1023 170.352 91.6364C170.186 91.1667 169.928 90.7898 169.58 90.5057C169.231 90.2216 168.792 90.0795 168.261 90.0795C167.727 90.0795 167.284 90.2216 166.932 90.5057C166.583 90.7898 166.324 91.1667 166.153 91.6364C165.987 92.1023 165.903 92.6136 165.903 93.1705C165.903 93.7311 165.987 94.2443 166.153 94.7102C166.324 95.1761 166.583 95.5492 166.932 95.8295C167.284 96.1098 167.727 96.25 168.261 96.25ZM175.919 92.3182V97.5H174.22V88.7727H175.851V90.1932H175.959C176.16 89.7311 176.474 89.3598 176.902 89.0795C177.334 88.7992 177.877 88.6591 178.533 88.6591C179.127 88.6591 179.648 88.7841 180.095 89.0341C180.542 89.2803 180.889 89.6477 181.135 90.1364C181.381 90.625 181.504 91.2292 181.504 91.9489V97.5H179.805V92.1534C179.805 91.5208 179.641 91.0265 179.311 90.6705C178.982 90.3106 178.529 90.1307 177.953 90.1307C177.559 90.1307 177.209 90.2159 176.902 90.3864C176.599 90.5568 176.358 90.8068 176.18 91.1364C176.006 91.4621 175.919 91.8561 175.919 92.3182ZM187.544 97.6761C186.684 97.6761 185.944 97.4924 185.322 97.125C184.705 96.7538 184.228 96.233 183.891 95.5625C183.557 94.8883 183.391 94.0985 183.391 93.1932C183.391 92.2992 183.557 91.5114 183.891 90.8295C184.228 90.1477 184.697 89.6155 185.3 89.233C185.906 88.8504 186.614 88.6591 187.425 88.6591C187.917 88.6591 188.394 88.7405 188.857 88.9034C189.319 89.0663 189.733 89.322 190.101 89.6705C190.468 90.0189 190.758 90.4716 190.97 91.0284C191.182 91.5814 191.288 92.2538 191.288 93.0455V93.6477H184.351V92.375H189.624C189.624 91.928 189.533 91.5322 189.351 91.1875C189.169 90.839 188.913 90.5644 188.584 90.3636C188.258 90.1629 187.875 90.0625 187.436 90.0625C186.959 90.0625 186.542 90.1799 186.186 90.4148C185.834 90.6458 185.561 90.9489 185.368 91.3239C185.179 91.6951 185.084 92.0985 185.084 92.5341V93.5284C185.084 94.1117 185.186 94.608 185.391 95.017C185.599 95.4261 185.889 95.7386 186.26 95.9545C186.631 96.1667 187.065 96.2727 187.561 96.2727C187.883 96.2727 188.177 96.2273 188.442 96.1364C188.707 96.0417 188.936 95.9015 189.129 95.7159C189.322 95.5303 189.47 95.3011 189.572 95.0284L191.18 95.3182C191.052 95.7917 190.821 96.2064 190.487 96.5625C190.158 96.9148 189.743 97.1894 189.243 97.3864C188.747 97.5795 188.18 97.6761 187.544 97.6761ZM194.872 92.3182V97.5H193.173V88.7727H194.804V90.1932H194.912C195.113 89.7311 195.427 89.3598 195.855 89.0795C196.287 88.7992 196.83 88.6591 197.486 88.6591C198.08 88.6591 198.601 88.7841 199.048 89.0341C199.495 89.2803 199.842 89.6477 200.088 90.1364C200.334 90.625 200.457 91.2292 200.457 91.9489V97.5H198.759V92.1534C198.759 91.5208 198.594 91.0265 198.264 90.6705C197.935 90.3106 197.482 90.1307 196.906 90.1307C196.512 90.1307 196.162 90.2159 195.855 90.3864C195.552 90.5568 195.312 90.8068 195.134 91.1364C194.959 91.4621 194.872 91.8561 194.872 92.3182ZM206.81 88.7727V90.1364H202.043V88.7727H206.81ZM203.321 86.6818H205.02V94.9375C205.02 95.267 205.069 95.5152 205.168 95.6818C205.266 95.8447 205.393 95.9564 205.548 96.017C205.707 96.0739 205.88 96.1023 206.065 96.1023C206.202 96.1023 206.321 96.0928 206.423 96.0739C206.526 96.0549 206.605 96.0398 206.662 96.0284L206.969 97.4318C206.87 97.4697 206.73 97.5076 206.548 97.5455C206.366 97.5871 206.139 97.6098 205.866 97.6136C205.42 97.6212 205.003 97.5417 204.616 97.375C204.23 97.2083 203.918 96.9508 203.679 96.6023C203.44 96.2538 203.321 95.8163 203.321 95.2898V86.6818ZM215.088 90.9034L213.548 91.1761C213.484 90.9792 213.382 90.7917 213.241 90.6136C213.105 90.4356 212.92 90.2898 212.685 90.1761C212.45 90.0625 212.156 90.0057 211.804 90.0057C211.323 90.0057 210.921 90.1136 210.599 90.3295C210.277 90.5417 210.116 90.8163 210.116 91.1534C210.116 91.4451 210.224 91.6799 210.44 91.858C210.656 92.036 211.005 92.1818 211.486 92.2955L212.872 92.6136C213.675 92.7992 214.274 93.0852 214.668 93.4716C215.062 93.858 215.259 94.3598 215.259 94.9773C215.259 95.5 215.107 95.9659 214.804 96.375C214.505 96.7803 214.086 97.0985 213.548 97.3295C213.014 97.5606 212.395 97.6761 211.69 97.6761C210.713 97.6761 209.916 97.4678 209.298 97.0511C208.681 96.6307 208.302 96.0341 208.162 95.2614L209.804 95.0114C209.906 95.4394 210.116 95.7633 210.435 95.983C210.753 96.1989 211.168 96.3068 211.679 96.3068C212.236 96.3068 212.681 96.1913 213.014 95.9602C213.348 95.7254 213.514 95.4394 213.514 95.1023C213.514 94.8295 213.412 94.6004 213.207 94.4148C213.007 94.2292 212.698 94.089 212.281 93.9943L210.804 93.6705C209.99 93.4848 209.387 93.1894 208.997 92.7841C208.611 92.3788 208.418 91.8655 208.418 91.2443C208.418 90.7292 208.562 90.2784 208.849 89.892C209.137 89.5057 209.535 89.2045 210.043 88.9886C210.55 88.7689 211.132 88.6591 211.787 88.6591C212.73 88.6591 213.473 88.8636 214.014 89.2727C214.556 89.678 214.914 90.2216 215.088 90.9034Z" fill="black"/>
<rect x="34" y="134" width="50" height="50" rx="25" fill="#ECF2FF"/>
<rect x="56" y="156" width="6" height="6" rx="3" fill="#0066FF"/>
<path d="M129.428 156.648H127.655C127.587 156.269 127.46 155.936 127.274 155.648C127.089 155.36 126.861 155.116 126.592 154.915C126.323 154.714 126.022 154.562 125.689 154.46C125.359 154.358 125.009 154.307 124.638 154.307C123.967 154.307 123.367 154.475 122.837 154.812C122.31 155.15 121.893 155.644 121.587 156.295C121.284 156.947 121.132 157.742 121.132 158.682C121.132 159.629 121.284 160.428 121.587 161.08C121.893 161.731 122.312 162.223 122.842 162.557C123.373 162.89 123.969 163.057 124.632 163.057C125 163.057 125.348 163.008 125.678 162.909C126.011 162.807 126.312 162.657 126.581 162.46C126.85 162.263 127.077 162.023 127.263 161.739C127.452 161.451 127.583 161.121 127.655 160.75L129.428 160.756C129.333 161.328 129.149 161.854 128.876 162.335C128.607 162.812 128.261 163.225 127.837 163.574C127.416 163.919 126.935 164.186 126.393 164.375C125.852 164.564 125.261 164.659 124.621 164.659C123.613 164.659 122.715 164.42 121.928 163.943C121.14 163.462 120.518 162.775 120.064 161.881C119.613 160.987 119.388 159.92 119.388 158.682C119.388 157.439 119.615 156.373 120.07 155.483C120.524 154.589 121.145 153.903 121.933 153.426C122.721 152.945 123.617 152.705 124.621 152.705C125.238 152.705 125.814 152.794 126.348 152.972C126.886 153.146 127.369 153.403 127.797 153.744C128.225 154.081 128.579 154.494 128.859 154.983C129.14 155.468 129.329 156.023 129.428 156.648ZM135.068 164.676C134.25 164.676 133.536 164.489 132.926 164.114C132.316 163.739 131.843 163.214 131.506 162.54C131.169 161.866 131 161.078 131 160.176C131 159.271 131.169 158.479 131.506 157.801C131.843 157.123 132.316 156.597 132.926 156.222C133.536 155.847 134.25 155.659 135.068 155.659C135.886 155.659 136.6 155.847 137.21 156.222C137.82 156.597 138.294 157.123 138.631 157.801C138.968 158.479 139.136 159.271 139.136 160.176C139.136 161.078 138.968 161.866 138.631 162.54C138.294 163.214 137.82 163.739 137.21 164.114C136.6 164.489 135.886 164.676 135.068 164.676ZM135.074 163.25C135.604 163.25 136.044 163.11 136.392 162.83C136.741 162.549 136.998 162.176 137.165 161.71C137.335 161.244 137.42 160.731 137.42 160.17C137.42 159.614 137.335 159.102 137.165 158.636C136.998 158.167 136.741 157.79 136.392 157.506C136.044 157.222 135.604 157.08 135.074 157.08C134.54 157.08 134.097 157.222 133.744 157.506C133.396 157.79 133.136 158.167 132.966 158.636C132.799 159.102 132.716 159.614 132.716 160.17C132.716 160.731 132.799 161.244 132.966 161.71C133.136 162.176 133.396 162.549 133.744 162.83C134.097 163.11 134.54 163.25 135.074 163.25ZM141.033 164.5V155.773H142.663V157.193H142.771C142.953 156.712 143.25 156.337 143.663 156.068C144.076 155.795 144.571 155.659 145.146 155.659C145.73 155.659 146.218 155.795 146.612 156.068C147.01 156.341 147.304 156.716 147.493 157.193H147.584C147.792 156.727 148.124 156.356 148.578 156.08C149.033 155.799 149.574 155.659 150.203 155.659C150.995 155.659 151.641 155.907 152.141 156.403C152.644 156.9 152.896 157.648 152.896 158.648V164.5H151.197V158.807C151.197 158.216 151.036 157.788 150.714 157.523C150.393 157.258 150.008 157.125 149.561 157.125C149.008 157.125 148.578 157.295 148.271 157.636C147.964 157.973 147.811 158.407 147.811 158.938V164.5H146.118V158.699C146.118 158.225 145.97 157.845 145.675 157.557C145.379 157.269 144.995 157.125 144.521 157.125C144.199 157.125 143.902 157.21 143.629 157.381C143.36 157.547 143.143 157.78 142.976 158.08C142.813 158.379 142.732 158.725 142.732 159.119V164.5H141.033ZM155.31 164.5V152.864H157.009V157.188H157.111C157.209 157.006 157.351 156.795 157.537 156.557C157.723 156.318 157.98 156.11 158.31 155.932C158.639 155.75 159.075 155.659 159.616 155.659C160.321 155.659 160.95 155.837 161.503 156.193C162.056 156.549 162.49 157.062 162.804 157.733C163.122 158.403 163.281 159.21 163.281 160.153C163.281 161.097 163.124 161.905 162.81 162.58C162.495 163.25 162.063 163.767 161.514 164.131C160.965 164.491 160.338 164.67 159.634 164.67C159.103 164.67 158.67 164.581 158.332 164.403C157.999 164.225 157.738 164.017 157.548 163.778C157.359 163.54 157.213 163.328 157.111 163.142H156.969V164.5H155.31ZM156.974 160.136C156.974 160.75 157.063 161.288 157.241 161.75C157.42 162.212 157.677 162.574 158.014 162.835C158.351 163.093 158.764 163.222 159.253 163.222C159.76 163.222 160.185 163.087 160.526 162.818C160.866 162.545 161.124 162.176 161.298 161.71C161.476 161.244 161.565 160.72 161.565 160.136C161.565 159.561 161.478 159.044 161.304 158.585C161.134 158.127 160.876 157.765 160.531 157.5C160.19 157.235 159.764 157.102 159.253 157.102C158.76 157.102 158.344 157.229 158.003 157.483C157.666 157.737 157.41 158.091 157.236 158.545C157.062 159 156.974 159.53 156.974 160.136ZM165.189 164.5V155.773H166.888V164.5H165.189ZM166.047 154.426C165.751 154.426 165.498 154.328 165.286 154.131C165.077 153.93 164.973 153.691 164.973 153.415C164.973 153.134 165.077 152.896 165.286 152.699C165.498 152.498 165.751 152.398 166.047 152.398C166.342 152.398 166.594 152.498 166.803 152.699C167.015 152.896 167.121 153.134 167.121 153.415C167.121 153.691 167.015 153.93 166.803 154.131C166.594 154.328 166.342 154.426 166.047 154.426ZM170.872 159.318V164.5H169.173V155.773H170.804V157.193H170.912C171.113 156.731 171.427 156.36 171.855 156.08C172.287 155.799 172.83 155.659 173.486 155.659C174.08 155.659 174.601 155.784 175.048 156.034C175.495 156.28 175.842 156.648 176.088 157.136C176.334 157.625 176.457 158.229 176.457 158.949V164.5H174.759V159.153C174.759 158.521 174.594 158.027 174.264 157.67C173.935 157.311 173.482 157.131 172.906 157.131C172.512 157.131 172.162 157.216 171.855 157.386C171.552 157.557 171.312 157.807 171.134 158.136C170.959 158.462 170.872 158.856 170.872 159.318ZM182.497 164.676C181.637 164.676 180.897 164.492 180.276 164.125C179.658 163.754 179.181 163.233 178.844 162.562C178.51 161.888 178.344 161.098 178.344 160.193C178.344 159.299 178.51 158.511 178.844 157.83C179.181 157.148 179.651 156.616 180.253 156.233C180.859 155.85 181.567 155.659 182.378 155.659C182.87 155.659 183.348 155.741 183.81 155.903C184.272 156.066 184.687 156.322 185.054 156.67C185.421 157.019 185.711 157.472 185.923 158.028C186.135 158.581 186.241 159.254 186.241 160.045V160.648H179.304V159.375H184.577C184.577 158.928 184.486 158.532 184.304 158.188C184.122 157.839 183.866 157.564 183.537 157.364C183.211 157.163 182.829 157.062 182.389 157.062C181.912 157.062 181.495 157.18 181.139 157.415C180.787 157.646 180.514 157.949 180.321 158.324C180.132 158.695 180.037 159.098 180.037 159.534V160.528C180.037 161.112 180.139 161.608 180.344 162.017C180.552 162.426 180.842 162.739 181.213 162.955C181.584 163.167 182.018 163.273 182.514 163.273C182.836 163.273 183.13 163.227 183.395 163.136C183.66 163.042 183.889 162.902 184.082 162.716C184.276 162.53 184.423 162.301 184.526 162.028L186.134 162.318C186.005 162.792 185.774 163.206 185.44 163.562C185.111 163.915 184.696 164.189 184.196 164.386C183.7 164.58 183.134 164.676 182.497 164.676ZM191.393 164.67C190.689 164.67 190.06 164.491 189.507 164.131C188.958 163.767 188.526 163.25 188.212 162.58C187.901 161.905 187.746 161.097 187.746 160.153C187.746 159.21 187.903 158.403 188.217 157.733C188.536 157.062 188.971 156.549 189.524 156.193C190.077 155.837 190.704 155.659 191.405 155.659C191.946 155.659 192.382 155.75 192.712 155.932C193.045 156.11 193.303 156.318 193.484 156.557C193.67 156.795 193.814 157.006 193.916 157.188H194.018V152.864H195.717V164.5H194.058V163.142H193.916C193.814 163.328 193.666 163.54 193.473 163.778C193.284 164.017 193.022 164.225 192.689 164.403C192.356 164.581 191.924 164.67 191.393 164.67ZM191.768 163.222C192.257 163.222 192.67 163.093 193.007 162.835C193.348 162.574 193.606 162.212 193.78 161.75C193.958 161.288 194.047 160.75 194.047 160.136C194.047 159.53 193.96 159 193.786 158.545C193.611 158.091 193.356 157.737 193.018 157.483C192.681 157.229 192.265 157.102 191.768 157.102C191.257 157.102 190.831 157.235 190.49 157.5C190.149 157.765 189.892 158.127 189.717 158.585C189.547 159.044 189.462 159.561 189.462 160.136C189.462 160.72 189.549 161.244 189.723 161.71C189.897 162.176 190.155 162.545 190.496 162.818C190.84 163.087 191.265 163.222 191.768 163.222ZM206.053 164.676C205.208 164.676 204.481 164.485 203.871 164.102C203.265 163.716 202.799 163.184 202.473 162.506C202.147 161.828 201.984 161.051 201.984 160.176C201.984 159.29 202.151 158.508 202.484 157.83C202.818 157.148 203.287 156.616 203.893 156.233C204.5 155.85 205.214 155.659 206.036 155.659C206.698 155.659 207.289 155.782 207.808 156.028C208.327 156.271 208.746 156.612 209.064 157.051C209.386 157.491 209.577 158.004 209.638 158.591H207.984C207.893 158.182 207.685 157.83 207.359 157.534C207.037 157.239 206.606 157.091 206.064 157.091C205.59 157.091 205.176 157.216 204.82 157.466C204.467 157.712 204.193 158.064 203.996 158.523C203.799 158.977 203.7 159.515 203.7 160.136C203.7 160.773 203.797 161.322 203.99 161.784C204.183 162.246 204.456 162.604 204.808 162.858C205.164 163.112 205.583 163.239 206.064 163.239C206.386 163.239 206.678 163.18 206.939 163.062C207.204 162.941 207.426 162.769 207.604 162.545C207.786 162.322 207.912 162.053 207.984 161.739H209.638C209.577 162.303 209.393 162.807 209.087 163.25C208.78 163.693 208.369 164.042 207.854 164.295C207.342 164.549 206.742 164.676 206.053 164.676ZM215.131 164.676C214.313 164.676 213.598 164.489 212.989 164.114C212.379 163.739 211.905 163.214 211.568 162.54C211.231 161.866 211.062 161.078 211.062 160.176C211.062 159.271 211.231 158.479 211.568 157.801C211.905 157.123 212.379 156.597 212.989 156.222C213.598 155.847 214.313 155.659 215.131 155.659C215.949 155.659 216.663 155.847 217.273 156.222C217.883 156.597 218.356 157.123 218.693 157.801C219.03 158.479 219.199 159.271 219.199 160.176C219.199 161.078 219.03 161.866 218.693 162.54C218.356 163.214 217.883 163.739 217.273 164.114C216.663 164.489 215.949 164.676 215.131 164.676ZM215.136 163.25C215.667 163.25 216.106 163.11 216.455 162.83C216.803 162.549 217.061 162.176 217.227 161.71C217.398 161.244 217.483 160.731 217.483 160.17C217.483 159.614 217.398 159.102 217.227 158.636C217.061 158.167 216.803 157.79 216.455 157.506C216.106 157.222 215.667 157.08 215.136 157.08C214.602 157.08 214.159 157.222 213.807 157.506C213.458 157.79 213.199 158.167 213.028 158.636C212.862 159.102 212.778 159.614 212.778 160.17C212.778 160.731 212.862 161.244 213.028 161.71C213.199 162.176 213.458 162.549 213.807 162.83C214.159 163.11 214.602 163.25 215.136 163.25ZM221.095 164.5V155.773H222.726V157.193H222.834C223.016 156.712 223.313 156.337 223.726 156.068C224.139 155.795 224.633 155.659 225.209 155.659C225.792 155.659 226.281 155.795 226.675 156.068C227.072 156.341 227.366 156.716 227.555 157.193H227.646C227.855 156.727 228.186 156.356 228.641 156.08C229.095 155.799 229.637 155.659 230.266 155.659C231.057 155.659 231.703 155.907 232.203 156.403C232.707 156.9 232.959 157.648 232.959 158.648V164.5H231.26V158.807C231.26 158.216 231.099 157.788 230.777 157.523C230.455 157.258 230.071 157.125 229.624 157.125C229.071 157.125 228.641 157.295 228.334 157.636C228.027 157.973 227.874 158.407 227.874 158.938V164.5H226.18V158.699C226.18 158.225 226.033 157.845 225.737 157.557C225.442 157.269 225.057 157.125 224.584 157.125C224.262 157.125 223.964 157.21 223.692 157.381C223.423 157.547 223.205 157.78 223.038 158.08C222.875 158.379 222.794 158.725 222.794 159.119V164.5H221.095ZM235.236 167.773V155.773H236.895V157.188H237.037C237.135 157.006 237.277 156.795 237.463 156.557C237.649 156.318 237.906 156.11 238.236 155.932C238.565 155.75 239.001 155.659 239.543 155.659C240.247 155.659 240.876 155.837 241.429 156.193C241.982 156.549 242.416 157.062 242.73 157.733C243.048 158.403 243.207 159.21 243.207 160.153C243.207 161.097 243.05 161.905 242.736 162.58C242.421 163.25 241.99 163.767 241.44 164.131C240.891 164.491 240.264 164.67 239.56 164.67C239.029 164.67 238.596 164.581 238.259 164.403C237.925 164.225 237.664 164.017 237.474 163.778C237.285 163.54 237.139 163.328 237.037 163.142H236.935V167.773H235.236ZM236.901 160.136C236.901 160.75 236.99 161.288 237.168 161.75C237.346 162.212 237.603 162.574 237.94 162.835C238.277 163.093 238.69 163.222 239.179 163.222C239.687 163.222 240.111 163.087 240.452 162.818C240.793 162.545 241.05 162.176 241.224 161.71C241.402 161.244 241.491 160.72 241.491 160.136C241.491 159.561 241.404 159.044 241.23 158.585C241.06 158.127 240.802 157.765 240.457 157.5C240.116 157.235 239.69 157.102 239.179 157.102C238.687 157.102 238.27 157.229 237.929 157.483C237.592 157.737 237.336 158.091 237.162 158.545C236.988 159 236.901 159.53 236.901 160.136ZM248.787 164.676C247.969 164.676 247.255 164.489 246.645 164.114C246.035 163.739 245.562 163.214 245.224 162.54C244.887 161.866 244.719 161.078 244.719 160.176C244.719 159.271 244.887 158.479 245.224 157.801C245.562 157.123 246.035 156.597 246.645 156.222C247.255 155.847 247.969 155.659 248.787 155.659C249.605 155.659 250.319 155.847 250.929 156.222C251.539 156.597 252.012 157.123 252.349 157.801C252.687 158.479 252.855 159.271 252.855 160.176C252.855 161.078 252.687 161.866 252.349 162.54C252.012 163.214 251.539 163.739 250.929 164.114C250.319 164.489 249.605 164.676 248.787 164.676ZM248.793 163.25C249.323 163.25 249.762 163.11 250.111 162.83C250.459 162.549 250.717 162.176 250.884 161.71C251.054 161.244 251.139 160.731 251.139 160.17C251.139 159.614 251.054 159.102 250.884 158.636C250.717 158.167 250.459 157.79 250.111 157.506C249.762 157.222 249.323 157.08 248.793 157.08C248.259 157.08 247.815 157.222 247.463 157.506C247.115 157.79 246.855 158.167 246.685 158.636C246.518 159.102 246.435 159.614 246.435 160.17C246.435 160.731 246.518 161.244 246.685 161.71C246.855 162.176 247.115 162.549 247.463 162.83C247.815 163.11 248.259 163.25 248.793 163.25ZM256.45 159.318V164.5H254.751V155.773H256.382V157.193H256.49C256.691 156.731 257.005 156.36 257.433 156.08C257.865 155.799 258.409 155.659 259.064 155.659C259.659 155.659 260.179 155.784 260.626 156.034C261.073 156.28 261.42 156.648 261.666 157.136C261.912 157.625 262.036 158.229 262.036 158.949V164.5H260.337V159.153C260.337 158.521 260.172 158.027 259.842 157.67C259.513 157.311 259.06 157.131 258.484 157.131C258.09 157.131 257.74 157.216 257.433 157.386C257.13 157.557 256.89 157.807 256.712 158.136C256.537 158.462 256.45 158.856 256.45 159.318ZM268.075 164.676C267.215 164.676 266.475 164.492 265.854 164.125C265.236 163.754 264.759 163.233 264.422 162.562C264.089 161.888 263.922 161.098 263.922 160.193C263.922 159.299 264.089 158.511 264.422 157.83C264.759 157.148 265.229 156.616 265.831 156.233C266.437 155.85 267.145 155.659 267.956 155.659C268.448 155.659 268.926 155.741 269.388 155.903C269.85 156.066 270.265 156.322 270.632 156.67C271 157.019 271.289 157.472 271.501 158.028C271.714 158.581 271.82 159.254 271.82 160.045V160.648H264.882V159.375H270.155C270.155 158.928 270.064 158.532 269.882 158.188C269.7 157.839 269.445 157.564 269.115 157.364C268.789 157.163 268.407 157.062 267.967 157.062C267.49 157.062 267.073 157.18 266.717 157.415C266.365 157.646 266.092 157.949 265.899 158.324C265.71 158.695 265.615 159.098 265.615 159.534V160.528C265.615 161.112 265.717 161.608 265.922 162.017C266.13 162.426 266.42 162.739 266.791 162.955C267.162 163.167 267.596 163.273 268.092 163.273C268.414 163.273 268.708 163.227 268.973 163.136C269.238 163.042 269.467 162.902 269.661 162.716C269.854 162.53 270.001 162.301 270.104 162.028L271.712 162.318C271.583 162.792 271.352 163.206 271.018 163.562C270.689 163.915 270.274 164.189 269.774 164.386C269.278 164.58 268.712 164.676 268.075 164.676ZM275.403 159.318V164.5H273.705V155.773H275.335V157.193H275.443C275.644 156.731 275.958 156.36 276.386 156.08C276.818 155.799 277.362 155.659 278.017 155.659C278.612 155.659 279.133 155.784 279.58 156.034C280.027 156.28 280.373 156.648 280.619 157.136C280.866 157.625 280.989 158.229 280.989 158.949V164.5H279.29V159.153C279.29 158.521 279.125 158.027 278.795 157.67C278.466 157.311 278.013 157.131 277.438 157.131C277.044 157.131 276.693 157.216 276.386 157.386C276.083 157.557 275.843 157.807 275.665 158.136C275.491 158.462 275.403 158.856 275.403 159.318ZM287.341 155.773V157.136H282.574V155.773H287.341ZM283.852 153.682H285.551V161.938C285.551 162.267 285.6 162.515 285.699 162.682C285.797 162.845 285.924 162.956 286.08 163.017C286.239 163.074 286.411 163.102 286.597 163.102C286.733 163.102 286.852 163.093 286.955 163.074C287.057 163.055 287.136 163.04 287.193 163.028L287.5 164.432C287.402 164.47 287.261 164.508 287.08 164.545C286.898 164.587 286.67 164.61 286.398 164.614C285.951 164.621 285.534 164.542 285.148 164.375C284.761 164.208 284.449 163.951 284.21 163.602C283.972 163.254 283.852 162.816 283.852 162.29V153.682ZM295.619 157.903L294.08 158.176C294.015 157.979 293.913 157.792 293.773 157.614C293.636 157.436 293.451 157.29 293.216 157.176C292.981 157.062 292.688 157.006 292.335 157.006C291.854 157.006 291.453 157.114 291.131 157.33C290.809 157.542 290.648 157.816 290.648 158.153C290.648 158.445 290.756 158.68 290.972 158.858C291.188 159.036 291.536 159.182 292.017 159.295L293.403 159.614C294.206 159.799 294.805 160.085 295.199 160.472C295.593 160.858 295.79 161.36 295.79 161.977C295.79 162.5 295.638 162.966 295.335 163.375C295.036 163.78 294.617 164.098 294.08 164.33C293.545 164.561 292.926 164.676 292.222 164.676C291.244 164.676 290.447 164.468 289.83 164.051C289.212 163.631 288.833 163.034 288.693 162.261L290.335 162.011C290.438 162.439 290.648 162.763 290.966 162.983C291.284 163.199 291.699 163.307 292.21 163.307C292.767 163.307 293.212 163.191 293.545 162.96C293.879 162.725 294.045 162.439 294.045 162.102C294.045 161.83 293.943 161.6 293.739 161.415C293.538 161.229 293.229 161.089 292.812 160.994L291.335 160.67C290.521 160.485 289.919 160.189 289.528 159.784C289.142 159.379 288.949 158.866 288.949 158.244C288.949 157.729 289.093 157.278 289.381 156.892C289.669 156.506 290.066 156.205 290.574 155.989C291.081 155.769 291.663 155.659 292.318 155.659C293.261 155.659 294.004 155.864 294.545 156.273C295.087 156.678 295.445 157.222 295.619 157.903Z" fill="black"/>
<rect x="34" y="201" width="50" height="50" rx="25" fill="#ECF2FF"/>
<rect x="56" y="223" width="6" height="6" rx="3" fill="#0066FF"/>
<path d="M119.349 231.5V219.864H123.496C124.402 219.864 125.152 220.028 125.746 220.358C126.341 220.687 126.786 221.138 127.082 221.71C127.377 222.278 127.525 222.919 127.525 223.631C127.525 224.347 127.375 224.991 127.076 225.562C126.781 226.131 126.334 226.581 125.735 226.915C125.14 227.244 124.392 227.409 123.491 227.409H120.638V225.92H123.332C123.904 225.92 124.368 225.822 124.724 225.625C125.08 225.424 125.341 225.152 125.508 224.807C125.674 224.462 125.758 224.07 125.758 223.631C125.758 223.191 125.674 222.801 125.508 222.46C125.341 222.119 125.078 221.852 124.718 221.659C124.362 221.466 123.892 221.369 123.309 221.369H121.104V231.5H119.349ZM131.908 231.693C131.355 231.693 130.855 231.591 130.408 231.386C129.961 231.178 129.607 230.877 129.346 230.483C129.088 230.089 128.96 229.606 128.96 229.034C128.96 228.542 129.054 228.136 129.244 227.818C129.433 227.5 129.689 227.248 130.011 227.062C130.333 226.877 130.692 226.737 131.09 226.642C131.488 226.547 131.893 226.475 132.306 226.426C132.829 226.366 133.253 226.316 133.579 226.278C133.905 226.237 134.141 226.17 134.289 226.08C134.437 225.989 134.511 225.841 134.511 225.636V225.597C134.511 225.1 134.371 224.716 134.09 224.443C133.814 224.17 133.401 224.034 132.852 224.034C132.28 224.034 131.829 224.161 131.499 224.415C131.174 224.665 130.948 224.943 130.823 225.25L129.227 224.886C129.416 224.356 129.692 223.928 130.056 223.602C130.424 223.273 130.846 223.034 131.323 222.886C131.8 222.735 132.302 222.659 132.829 222.659C133.177 222.659 133.547 222.701 133.937 222.784C134.331 222.864 134.698 223.011 135.039 223.227C135.384 223.443 135.666 223.752 135.886 224.153C136.105 224.551 136.215 225.068 136.215 225.705V231.5H134.556V230.307H134.488C134.378 230.527 134.213 230.742 133.994 230.955C133.774 231.167 133.492 231.343 133.147 231.483C132.802 231.623 132.389 231.693 131.908 231.693ZM132.278 230.33C132.747 230.33 133.149 230.237 133.482 230.051C133.819 229.866 134.075 229.623 134.249 229.324C134.427 229.021 134.516 228.697 134.516 228.352V227.227C134.456 227.288 134.338 227.345 134.164 227.398C133.994 227.447 133.799 227.491 133.579 227.528C133.359 227.562 133.145 227.595 132.937 227.625C132.728 227.652 132.554 227.674 132.414 227.693C132.085 227.735 131.783 227.805 131.511 227.903C131.242 228.002 131.026 228.144 130.863 228.33C130.704 228.511 130.624 228.754 130.624 229.057C130.624 229.477 130.78 229.795 131.09 230.011C131.401 230.223 131.797 230.33 132.278 230.33ZM142.137 234.955C141.444 234.955 140.847 234.864 140.347 234.682C139.851 234.5 139.446 234.259 139.131 233.96C138.817 233.661 138.582 233.333 138.427 232.977L139.887 232.375C139.989 232.542 140.126 232.718 140.296 232.903C140.47 233.093 140.705 233.254 141.001 233.386C141.3 233.519 141.684 233.585 142.154 233.585C142.798 233.585 143.33 233.428 143.751 233.114C144.171 232.803 144.381 232.307 144.381 231.625V229.909H144.273C144.171 230.095 144.023 230.301 143.83 230.528C143.641 230.756 143.379 230.953 143.046 231.119C142.713 231.286 142.279 231.369 141.745 231.369C141.056 231.369 140.434 231.208 139.881 230.886C139.332 230.561 138.897 230.081 138.575 229.449C138.256 228.812 138.097 228.03 138.097 227.102C138.097 226.174 138.254 225.379 138.569 224.716C138.887 224.053 139.323 223.545 139.876 223.193C140.429 222.837 141.056 222.659 141.756 222.659C142.298 222.659 142.736 222.75 143.069 222.932C143.402 223.11 143.662 223.318 143.847 223.557C144.037 223.795 144.183 224.006 144.285 224.188H144.41V222.773H146.075V231.693C146.075 232.443 145.9 233.059 145.552 233.54C145.203 234.021 144.732 234.377 144.137 234.608C143.546 234.839 142.879 234.955 142.137 234.955ZM142.12 229.96C142.609 229.96 143.022 229.847 143.359 229.619C143.7 229.388 143.957 229.059 144.131 228.631C144.309 228.199 144.398 227.682 144.398 227.08C144.398 226.492 144.311 225.975 144.137 225.528C143.963 225.081 143.707 224.733 143.37 224.483C143.033 224.229 142.616 224.102 142.12 224.102C141.609 224.102 141.183 224.235 140.842 224.5C140.501 224.761 140.243 225.117 140.069 225.568C139.898 226.019 139.813 226.523 139.813 227.08C139.813 227.652 139.9 228.153 140.075 228.585C140.249 229.017 140.506 229.354 140.847 229.597C141.192 229.839 141.616 229.96 142.12 229.96ZM152.114 231.676C151.254 231.676 150.514 231.492 149.893 231.125C149.275 230.754 148.798 230.233 148.461 229.562C148.128 228.888 147.961 228.098 147.961 227.193C147.961 226.299 148.128 225.511 148.461 224.83C148.798 224.148 149.268 223.616 149.87 223.233C150.476 222.85 151.184 222.659 151.995 222.659C152.487 222.659 152.965 222.741 153.427 222.903C153.889 223.066 154.304 223.322 154.671 223.67C155.039 224.019 155.328 224.472 155.54 225.028C155.753 225.581 155.859 226.254 155.859 227.045V227.648H148.921V226.375H154.194C154.194 225.928 154.103 225.532 153.921 225.188C153.739 224.839 153.484 224.564 153.154 224.364C152.828 224.163 152.446 224.062 152.006 224.062C151.529 224.062 151.112 224.18 150.756 224.415C150.404 224.646 150.131 224.949 149.938 225.324C149.749 225.695 149.654 226.098 149.654 226.534V227.528C149.654 228.112 149.756 228.608 149.961 229.017C150.169 229.426 150.459 229.739 150.83 229.955C151.201 230.167 151.635 230.273 152.131 230.273C152.453 230.273 152.747 230.227 153.012 230.136C153.277 230.042 153.506 229.902 153.7 229.716C153.893 229.53 154.04 229.301 154.143 229.028L155.751 229.318C155.622 229.792 155.391 230.206 155.058 230.562C154.728 230.915 154.313 231.189 153.813 231.386C153.317 231.58 152.751 231.676 152.114 231.676ZM163.677 219.864V231.5H161.978V219.864H163.677ZM168.502 231.693C167.949 231.693 167.449 231.591 167.002 231.386C166.555 231.178 166.201 230.877 165.94 230.483C165.682 230.089 165.553 229.606 165.553 229.034C165.553 228.542 165.648 228.136 165.837 227.818C166.027 227.5 166.282 227.248 166.604 227.062C166.926 226.877 167.286 226.737 167.684 226.642C168.082 226.547 168.487 226.475 168.9 226.426C169.423 226.366 169.847 226.316 170.173 226.278C170.498 226.237 170.735 226.17 170.883 226.08C171.031 225.989 171.104 225.841 171.104 225.636V225.597C171.104 225.1 170.964 224.716 170.684 224.443C170.407 224.17 169.995 224.034 169.445 224.034C168.873 224.034 168.423 224.161 168.093 224.415C167.767 224.665 167.542 224.943 167.417 225.25L165.82 224.886C166.01 224.356 166.286 223.928 166.65 223.602C167.017 223.273 167.44 223.034 167.917 222.886C168.394 222.735 168.896 222.659 169.423 222.659C169.771 222.659 170.14 222.701 170.531 222.784C170.924 222.864 171.292 223.011 171.633 223.227C171.978 223.443 172.26 223.752 172.479 224.153C172.699 224.551 172.809 225.068 172.809 225.705V231.5H171.15V230.307H171.082C170.972 230.527 170.807 230.742 170.587 230.955C170.368 231.167 170.085 231.343 169.741 231.483C169.396 231.623 168.983 231.693 168.502 231.693ZM168.871 230.33C169.341 230.33 169.743 230.237 170.076 230.051C170.413 229.866 170.669 229.623 170.843 229.324C171.021 229.021 171.11 228.697 171.11 228.352V227.227C171.049 227.288 170.932 227.345 170.758 227.398C170.587 227.447 170.392 227.491 170.173 227.528C169.953 227.562 169.739 227.595 169.531 227.625C169.322 227.652 169.148 227.674 169.008 227.693C168.678 227.735 168.377 227.805 168.104 227.903C167.835 228.002 167.62 228.144 167.457 228.33C167.298 228.511 167.218 228.754 167.218 229.057C167.218 229.477 167.373 229.795 167.684 230.011C167.995 230.223 168.39 230.33 168.871 230.33ZM175.833 234.773C175.579 234.773 175.348 234.752 175.14 234.71C174.932 234.672 174.776 234.631 174.674 234.585L175.083 233.193C175.394 233.277 175.67 233.313 175.913 233.301C176.155 233.29 176.369 233.199 176.555 233.028C176.744 232.858 176.911 232.58 177.055 232.193L177.265 231.614L174.072 222.773H175.89L178.1 229.545H178.191L180.401 222.773H182.225L178.629 232.665C178.462 233.119 178.25 233.504 177.992 233.818C177.735 234.136 177.428 234.375 177.072 234.534C176.716 234.693 176.303 234.773 175.833 234.773ZM187.201 231.676C186.383 231.676 185.669 231.489 185.059 231.114C184.449 230.739 183.976 230.214 183.638 229.54C183.301 228.866 183.133 228.078 183.133 227.176C183.133 226.271 183.301 225.479 183.638 224.801C183.976 224.123 184.449 223.597 185.059 223.222C185.669 222.847 186.383 222.659 187.201 222.659C188.019 222.659 188.733 222.847 189.343 223.222C189.953 223.597 190.426 224.123 190.763 224.801C191.101 225.479 191.269 226.271 191.269 227.176C191.269 228.078 191.101 228.866 190.763 229.54C190.426 230.214 189.953 230.739 189.343 231.114C188.733 231.489 188.019 231.676 187.201 231.676ZM187.207 230.25C187.737 230.25 188.176 230.11 188.525 229.83C188.873 229.549 189.131 229.176 189.298 228.71C189.468 228.244 189.553 227.731 189.553 227.17C189.553 226.614 189.468 226.102 189.298 225.636C189.131 225.167 188.873 224.79 188.525 224.506C188.176 224.222 187.737 224.08 187.207 224.08C186.673 224.08 186.229 224.222 185.877 224.506C185.529 224.79 185.269 225.167 185.099 225.636C184.932 226.102 184.849 226.614 184.849 227.17C184.849 227.731 184.932 228.244 185.099 228.71C185.269 229.176 185.529 229.549 185.877 229.83C186.229 230.11 186.673 230.25 187.207 230.25ZM198.694 227.881V222.773H200.398V231.5H198.728V229.989H198.637C198.436 230.455 198.114 230.843 197.671 231.153C197.232 231.46 196.684 231.614 196.029 231.614C195.469 231.614 194.972 231.491 194.54 231.244C194.112 230.994 193.775 230.625 193.529 230.136C193.287 229.648 193.165 229.044 193.165 228.324V222.773H194.864V228.119C194.864 228.714 195.029 229.187 195.359 229.54C195.688 229.892 196.116 230.068 196.643 230.068C196.961 230.068 197.277 229.989 197.592 229.83C197.91 229.67 198.173 229.43 198.381 229.108C198.594 228.786 198.698 228.377 198.694 227.881ZM206.755 222.773V224.136H201.988V222.773H206.755ZM203.266 220.682H204.965V228.938C204.965 229.267 205.014 229.515 205.113 229.682C205.211 229.845 205.338 229.956 205.494 230.017C205.653 230.074 205.825 230.102 206.011 230.102C206.147 230.102 206.266 230.093 206.369 230.074C206.471 230.055 206.55 230.04 206.607 230.028L206.914 231.432C206.816 231.47 206.675 231.508 206.494 231.545C206.312 231.587 206.085 231.61 205.812 231.614C205.365 231.621 204.948 231.542 204.562 231.375C204.175 231.208 203.863 230.951 203.624 230.602C203.386 230.254 203.266 229.816 203.266 229.29V220.682ZM215.033 224.903L213.494 225.176C213.429 224.979 213.327 224.792 213.187 224.614C213.05 224.436 212.865 224.29 212.63 224.176C212.395 224.062 212.102 224.006 211.749 224.006C211.268 224.006 210.867 224.114 210.545 224.33C210.223 224.542 210.062 224.816 210.062 225.153C210.062 225.445 210.17 225.68 210.386 225.858C210.602 226.036 210.95 226.182 211.431 226.295L212.817 226.614C213.621 226.799 214.219 227.085 214.613 227.472C215.007 227.858 215.204 228.36 215.204 228.977C215.204 229.5 215.052 229.966 214.749 230.375C214.45 230.78 214.031 231.098 213.494 231.33C212.96 231.561 212.34 231.676 211.636 231.676C210.658 231.676 209.861 231.468 209.244 231.051C208.626 230.631 208.247 230.034 208.107 229.261L209.749 229.011C209.852 229.439 210.062 229.763 210.38 229.983C210.698 230.199 211.113 230.307 211.624 230.307C212.181 230.307 212.626 230.191 212.96 229.96C213.293 229.725 213.46 229.439 213.46 229.102C213.46 228.83 213.357 228.6 213.153 228.415C212.952 228.229 212.643 228.089 212.227 227.994L210.749 227.67C209.935 227.485 209.333 227.189 208.942 226.784C208.556 226.379 208.363 225.866 208.363 225.244C208.363 224.729 208.507 224.278 208.795 223.892C209.083 223.506 209.48 223.205 209.988 222.989C210.496 222.769 211.077 222.659 211.732 222.659C212.675 222.659 213.418 222.864 213.96 223.273C214.501 223.678 214.859 224.222 215.033 224.903Z" fill="black"/>
</svg>
